<svg width="1000" height="900" viewBox="0 0 1000 900" fill="none" xmlns="http://www.w3.org/2000/svg">
<mask id="mask0_3_336" style="mask-type:luminance" maskUnits="userSpaceOnUse" x="230" y="128" width="531" height="251">
<path d="M230 128H761V379H230V128Z" fill="white"/>
</mask>
<g mask="url(#mask0_3_336)">
<mask id="mask1_3_336" style="mask-type:luminance" maskUnits="userSpaceOnUse" x="226" y="124" width="539" height="261">
<path d="M764.005 124.654H226.342V384.205H764.005V124.654Z" fill="white"/>
</mask>
<g mask="url(#mask1_3_336)">
<mask id="mask2_3_336" style="mask-type:luminance" maskUnits="userSpaceOnUse" x="230" y="129" width="531" height="250">
<path d="M230 129.994H761V379H230V129.994Z" fill="white"/>
</mask>
<g mask="url(#mask2_3_336)">
<path d="M496.478 130.163C349.642 130.163 230 241.824 230 378.865H240.03C240.03 246.521 354.675 139.524 496.478 139.524C638.281 139.524 752.889 246.521 752.889 378.865H762.955C762.955 241.824 643.278 130.163 496.478 130.163Z" fill="white"/>
</g>
</g>
</g>
<mask id="mask3_3_336" style="mask-type:luminance" maskUnits="userSpaceOnUse" x="147" y="334" width="698" height="405">
<path d="M845 334H147V739H845V334Z" fill="white"/>
</mask>
<g mask="url(#mask3_3_336)">
<path d="M198.275 347.264L203.796 348.381L198.41 372.329L192.89 371.212L194.909 362.154L168.788 357.191L170.135 351.111L196.256 356.074L198.275 347.264Z" fill="white"/>
<path d="M195 404.05L194.461 410.378L173.187 409.013C170.764 408.92 168.744 408.269 167.128 407.028C165.513 405.849 164.334 404.329 163.628 402.437C162.921 400.514 162.651 398.373 162.82 395.985C163.022 393.565 163.594 391.456 164.57 389.657C165.546 387.826 166.926 386.462 168.744 385.562C170.528 384.631 172.649 384.228 175.072 384.321L196.346 385.686L195.808 392.014L174.803 390.773C173.086 390.587 171.706 391.053 170.629 392.138C169.552 393.193 168.946 394.62 168.879 396.357C168.677 398.156 169.047 399.645 169.956 400.824C170.932 401.972 172.278 402.623 173.995 402.809L195 404.05Z" fill="white"/>
<path d="M162.489 427.143L194.669 425.034L195.073 431.362L180.935 432.231V432.603L196.015 442.405L196.554 449.85L181.473 439.8L164.374 452.084L163.835 444.639L176.492 435.705L172.048 432.851L162.892 433.472L162.489 427.143Z" fill="white"/>
<path d="M166.956 468.849L198.598 462.645L200.079 468.725L187.018 471.207L189.98 483.739L203.041 481.257L204.388 487.337L172.746 493.541L171.399 487.461L184.46 484.856L181.498 472.323L168.437 474.929L166.956 468.849Z" fill="white"/>
<path d="M203.188 502.107L208.44 500.37L217.595 523.325L212.344 525.062L208.844 516.501L183.8 524.938L181.511 519.107L206.555 510.669L203.188 502.107Z" fill="white"/>
<path d="M227.087 541.77L198.138 554.923L195.041 549.215L223.99 536.062L227.087 541.77Z" fill="white"/>
<path d="M249.117 576.193L221.919 592.199L218.822 587.608L228.247 566.638V566.514L211.147 576.565L207.377 571.229L234.575 555.223L237.807 559.814L228.247 580.784L228.382 580.908L245.482 570.857L249.117 576.193Z" fill="white"/>
<path d="M237.685 611.224L232.972 606.137L264.748 594.473L270.538 600.553L253.303 627.851L248.456 622.64L252.63 616.684L244.955 608.495L237.685 611.224ZM250.072 606.509L255.323 612.341L262.055 602.042L261.921 601.794L250.072 606.509Z" fill="white"/>
<path d="M284.758 654.616L304.417 630.917L321.651 643.077L318.15 647.296L306.302 638.982L301.724 644.566L312.63 652.259L309.129 656.354L298.223 648.661L293.645 654.368L305.494 662.682L301.993 666.776L284.758 654.616Z" fill="white"/>
<path d="M318.626 677.049L335.053 651.365L340.977 654.467L327.378 675.685L339.227 682.137L336.399 686.604L318.626 677.049Z" fill="white"/>
<path d="M372.912 669.929L359.448 696.979L353.254 694.373L366.718 667.323L372.912 669.929Z" fill="white"/>
<path d="M377.464 704.079L378.811 700.605L401.296 685.467L385.947 680.752L387.832 675.913L411.26 683.234L409.914 686.708L387.428 701.598L402.643 706.437L400.892 711.4L377.464 704.079Z" fill="white"/>
<path d="M425.754 717.126L418.617 715.761L435.583 688.463L444.2 689.952L449.182 721.097L441.911 719.856L440.969 712.783L429.524 710.798L425.754 717.126ZM432.082 706.331L440.161 707.82L438.545 695.908H438.276L432.082 706.331Z" fill="white"/>
<path d="M474.943 693.495L481.675 716.326H481.944L490.965 694.116L498.505 694.364L485.983 723.771L477.232 723.399L467.402 693.123L474.943 693.495Z" fill="white"/>
<path d="M515.736 723.445L512.774 693.79L534.452 691.928L534.991 697.14L520.18 698.381L520.853 705.453L534.452 704.337L534.991 709.424L521.391 710.541L522.065 717.613L536.876 716.372L537.414 721.584L515.736 723.445Z" fill="white"/>
<path d="M550.336 695.034L548.989 689.947L574.841 684.612L576.188 689.699L566.493 691.684L572.283 715.632L565.685 716.997L559.896 693.049L550.336 695.034Z" fill="white"/>
<path d="M605.513 706.819L598.646 709.177L597.704 677.66L605.917 674.807L627.864 699.126L620.863 701.484L616.15 695.9L605.244 699.747L605.513 706.819ZM604.974 694.535L612.649 691.93L604.571 682.624L604.301 682.748L604.974 694.535Z" fill="white"/>
<path d="M670.649 678.308L664.59 682.03L656.242 651.382L663.647 647.039L690.576 666.396L684.383 670.119L678.458 665.528L668.629 671.359L670.649 678.308ZM667.283 666.396L674.15 662.301L664.051 654.857L663.782 655.105L667.283 666.396Z" fill="white"/>
<path d="M705.267 655.789L684.263 633.206L689.514 629.111L706.883 647.723L717.251 639.534L720.886 643.505L705.267 655.789Z" fill="white"/>
<path d="M734.655 631.134L710.823 611.033L725.5 596.267L729.674 599.742L719.71 609.916L725.365 614.756L734.521 605.449L738.695 608.924L729.539 618.23L735.194 623.069L745.158 612.894L749.332 616.369L734.655 631.134Z" fill="white"/>
<path d="M762.013 601.993L735.488 584.994L739.393 579.782L751.107 587.227L751.376 586.979L746.26 570.724L750.973 564.52L755.954 581.147L777.632 581.395L772.92 587.599L757.032 587.103L758.378 591.942L765.918 596.781L762.013 601.993Z" fill="white"/>
<path d="M774.33 543C773.253 542.504 772.176 542.504 771.098 543C769.954 543.496 768.944 544.427 768.136 545.73C767.429 547.157 767.194 548.397 767.463 549.452C767.665 550.445 768.204 551.158 769.079 551.561C770.156 552.058 771.199 552.027 772.176 551.437C773.084 550.786 774.027 550.01 775.003 549.08L776.888 546.97C778.235 545.668 779.581 544.551 780.927 543.62C782.207 542.721 783.587 542.224 785.101 542.131C786.616 541.976 788.198 542.255 789.814 543C792.406 544.334 793.988 546.226 794.527 548.708C795.133 551.189 794.527 554.043 792.642 557.269C790.824 560.495 788.602 562.729 785.909 563.97C783.317 565.21 780.456 565.086 777.292 563.597L780.254 558.262C781.803 558.758 783.183 558.727 784.428 558.138C785.674 557.579 786.717 556.525 787.525 555.036C788.333 553.547 788.636 552.244 788.468 551.065C788.266 549.917 787.693 549.08 786.717 548.584C785.707 548.18 784.765 548.273 783.755 548.832C782.779 549.328 781.702 550.197 780.524 551.437L778.235 553.919C776.35 555.904 774.431 557.269 772.445 558.014C770.492 558.696 768.405 558.51 766.251 557.517C764.568 556.711 763.289 555.532 762.481 554.043C761.673 552.554 761.337 550.91 761.404 549.08C761.505 547.188 762.077 545.295 763.154 543.372C764.332 541.387 765.679 539.867 767.194 538.781C768.742 537.633 770.392 536.982 772.176 536.796C773.892 536.548 775.643 536.796 777.427 537.54L774.33 543Z" fill="white"/>
<path d="M805.589 530.598L775.159 520.423L782.565 501.563L787.951 503.424L782.969 516.329L790.105 518.686L794.683 506.774L800.069 508.512L795.491 520.423L802.762 522.905L807.743 510.001L812.995 511.738L805.589 530.598Z" fill="white"/>
<path d="M818.7 494.098L787.193 487.522L791.906 467.917L797.426 469.034L794.195 482.435L801.6 484.048L804.563 471.639L810.083 472.756L807.121 485.164L814.661 486.777L817.892 473.377L823.413 474.493L818.7 494.098Z" fill="white"/>
<path d="M795.131 448.166L820.175 442.955V442.707L796.478 433.525L797.151 426.576L828.389 439.48L827.581 447.422L794.458 455.115L795.131 448.166Z" fill="white"/>
<path d="M795.689 388.568L828.004 386.955L828.273 392.414L808.75 406.436V406.56L829.081 405.567L829.485 411.895L797.17 413.508L796.766 408.049L816.425 394.152L816.29 393.903L795.959 394.896L795.689 388.568Z" fill="white"/>
<mask id="mask4_3_336" style="mask-type:luminance" maskUnits="userSpaceOnUse" x="784" y="338" width="44" height="44">
<path d="M784.679 338.126H827.766V381.647H784.679V338.126Z" fill="white"/>
</mask>
<g mask="url(#mask4_3_336)">
<path d="M824.317 363.286L825.663 369.862L791.867 365.643L790.117 357.702L819.604 341.82L821.085 348.52L814.218 351.87L816.507 362.541L824.317 363.286ZM811.121 361.921L809.506 354.476L798.195 360.308L798.33 360.556L811.121 361.921Z" fill="white"/>
</g>
</g>
<mask id="mask5_3_336" style="mask-type:luminance" maskUnits="userSpaceOnUse" x="286" y="280" width="420" height="340">
<path d="M704.985 280L286 281.115L286.899 619.125L705.885 618.01L704.985 280Z" fill="white"/>
</mask>
<g mask="url(#mask5_3_336)">
<mask id="mask6_3_336" style="mask-type:luminance" maskUnits="userSpaceOnUse" x="287" y="325" width="168" height="197">
<path d="M287.307 326.178L453.714 325.735L454.234 521.03L287.826 521.472L287.307 326.178Z" fill="white"/>
</mask>
<g mask="url(#mask6_3_336)">
<path d="M391.413 351.94C390.963 351.941 390.758 351.825 390.758 351.59C390.757 351.296 391.084 351.119 391.738 351.118C392.27 351.116 392.434 351.292 392.231 351.586C391.904 351.822 391.618 351.94 391.413 351.94ZM369.053 375.355C368.156 376.619 367.3 377.649 366.442 378.414C365.544 379.12 365.136 379.327 365.135 379.004C365.216 378.711 365.542 378.152 366.112 377.358C366.642 376.594 367.254 375.8 367.906 375.006C368.641 374.242 369.253 373.77 369.703 373.593C370.357 373.357 370.113 373.944 369.053 375.355ZM361.385 384.648C360.405 385.354 359.996 385.444 360.24 384.885C360.239 384.504 360.565 384.063 361.219 383.592C361.872 383.121 362.445 382.884 363.017 382.883C364.327 382.879 364.246 383.466 362.858 384.644C362.287 385.115 361.96 385.35 361.878 385.351C361.878 385.351 361.959 385.116 362.204 384.645C362.53 384.351 362.571 384.175 362.366 384.176C362.243 384.176 361.916 384.353 361.385 384.648ZM424.747 331.665C432.603 331.35 439.031 333.152 444.075 337.129C445.797 338.709 446.906 339.997 447.358 340.994C447.77 342.02 447.856 343.633 447.535 345.805C447.212 347.625 446.807 348.947 446.4 349.799C446.074 350.592 445.096 351.973 443.465 353.914C442.241 355.414 440.855 357.149 439.223 359.09C437.592 361.06 436.001 362.971 434.492 364.853C433.065 366.676 431.76 368.235 430.577 369.558C429.475 370.911 428.782 371.646 428.455 371.794C428.332 371.97 428.006 372.323 427.476 372.853C426.904 373.412 426.374 374.029 425.844 374.735C424.539 376.323 422.988 377.794 421.273 379.207C419.722 380.473 418.742 381.385 418.334 381.914C418.212 382.002 417.763 382.356 417.028 382.974C416.375 383.621 415.64 384.269 414.905 384.975C414.252 385.534 413.109 386.564 411.477 388.035C409.844 389.448 408.252 390.861 406.741 392.273C405.108 393.539 403.393 394.952 401.679 396.512C400.047 398.101 398.74 399.278 397.76 400.043C396.781 400.838 395.637 401.809 394.331 402.986C393.025 404.105 391.882 405.047 390.902 405.812C389.922 406.607 388.534 407.667 386.819 408.992C385.185 410.258 383.633 411.348 382.245 412.29C380.938 413.321 379.672 414.263 378.488 415.117C377.385 416 376.773 416.589 376.692 416.882C375.795 417.824 374.57 418.883 372.936 420.061C371.303 421.239 370.036 422.035 369.178 422.419C368.729 422.655 368.116 423.096 367.381 423.714C366.605 424.274 365.952 424.863 365.422 425.48C364.198 426.892 363.218 427.54 362.481 427.366C361.704 427.368 360.845 427.781 359.865 428.546C358.967 429.194 357.782 429.931 356.271 430.786C354.841 431.582 353.206 432.437 351.368 433.381C350.142 434.088 349.571 434.677 349.572 435.146C349.246 435.793 348.798 436.293 348.267 436.675C347.491 437.147 346.962 438.322 346.639 440.201C346.519 440.905 346.234 441.669 345.827 442.433C345.502 443.226 345.094 443.843 344.686 444.314C343.707 445.49 343.097 446.607 342.895 447.605C342.652 448.544 342.408 449.249 342.082 449.719C341.633 450.043 341.308 450.895 341.107 452.304C340.986 452.95 340.783 453.684 340.458 454.536C340.215 455.329 339.971 456.004 339.645 456.533C339.401 457.179 339.158 457.796 338.832 458.413C338.588 459.059 338.507 459.529 338.508 459.822C338.386 459.999 338.223 460.41 338.021 461.115C337.777 461.82 337.533 462.524 337.208 463.229C336.882 463.876 336.598 464.493 336.395 465.109C336.151 465.756 335.988 466.138 335.907 466.284C335.907 466.519 335.785 466.842 335.582 467.224C335.337 467.548 335.134 467.9 334.93 468.282C334.155 469.165 333.952 469.899 334.281 470.514C334.487 470.836 334.448 471.658 334.124 472.979C333.882 474.329 333.558 475.621 333.153 476.855C332.829 478.117 332.422 478.91 332.013 479.205C331.686 479.441 331.279 480.263 330.874 481.673C330.55 483.082 330.309 484.462 330.23 485.782C330.234 487.132 330.318 487.836 330.563 487.894C330.973 487.981 331.096 488.303 330.893 488.832C330.648 489.155 330.608 489.302 330.731 489.302C330.812 489.302 331.099 489.183 331.548 488.948C331.875 488.8 332.243 488.564 332.692 488.24C333.1 487.946 333.509 487.651 333.835 487.416L334.978 486.474L335.145 487.53C335.351 488.175 335.884 488.584 336.785 488.816C337.645 489.049 338.096 489.605 338.099 490.456L338.102 491.747L342.191 490.562C345.012 489.792 346.525 489.319 346.77 489.142C346.851 488.995 347.424 488.905 348.406 488.903C348.938 488.901 349.592 488.753 350.368 488.428C350.696 488.368 351.186 488.191 351.84 487.955C352.494 487.718 353.067 487.57 353.639 487.48C354.293 487.332 355.152 487.095 356.256 486.769C357.319 486.385 358.3 486.03 359.199 485.705C360.181 485.468 361.08 485.289 361.98 485.111C362.839 484.962 363.329 484.843 363.452 484.755C364.433 484.518 366.069 484.161 368.359 483.686C370.731 483.151 372.367 482.736 373.266 482.499C373.675 482.351 374.165 482.203 374.738 482.025C375.269 481.877 375.719 481.759 376.046 481.67C376.578 481.668 377.437 481.549 378.664 481.311C379.85 481.073 381.036 480.835 382.263 480.597C384.103 480.299 386.721 479.881 390.116 479.403C393.469 478.924 397.028 478.504 400.75 478.083C404.554 477.604 407.99 477.242 411.059 477C414.658 476.697 418.177 476.57 421.696 476.619C425.297 476.698 428.448 476.924 431.19 477.298C433.892 477.702 435.776 478.195 436.759 478.809C437.292 479.13 437.661 479.599 437.909 480.214C438.115 480.918 438.566 481.269 439.221 481.267C439.63 481.266 440.122 481.558 440.696 482.085C441.352 482.64 441.558 483.08 441.354 483.374C441.355 483.697 441.683 484.136 442.339 484.662C443.2 485.071 443.652 485.715 443.654 486.654C443.532 487.065 443.492 487.417 443.493 487.711C443.576 488.033 443.658 488.268 443.659 488.415C444.069 488.648 444.071 489.411 443.665 490.645C443.544 491.349 443.341 491.878 443.014 492.172C442.769 492.407 441.952 492.762 440.562 493.235C439.785 493.56 439.131 493.767 438.599 493.827C438.027 493.828 437.781 493.8 437.781 493.712C437.658 493.565 437.208 493.566 436.471 493.715C435.694 493.805 433.773 494.368 430.748 495.374C429.644 495.699 428.948 495.848 428.621 495.849C428.294 495.791 427.884 495.498 427.473 495.03C426.817 494.562 426.571 494.064 426.815 493.506C427.018 493.212 427.018 493.036 426.813 493.037C426.691 493.037 426.2 493.214 425.342 493.51C424.688 493.835 424.279 493.924 424.197 493.748C424.073 493.513 424.112 492.926 424.355 491.987C424.68 490.812 425.169 490.166 425.823 489.988C426.559 489.839 427.499 489.455 428.602 488.807C429.665 488.188 430.236 487.805 430.236 487.629C430.236 487.482 429.417 487.396 427.78 487.401C426.144 487.405 424.057 487.469 421.561 487.534C419.147 487.541 416.652 487.665 414.034 487.907C411.415 488.09 409.206 488.272 407.489 488.511C402.907 488.992 397.917 489.769 392.601 490.78C387.243 491.734 382.05 492.804 377.061 493.991C372.031 495.178 367.575 496.422 363.65 497.665C362.669 498.078 360.789 498.67 358.09 499.44C355.474 500.239 352.857 501.068 350.241 501.925C346.643 503.05 343.618 504.026 341.247 504.883C338.835 505.682 336.423 506.598 334.053 507.602C331.641 508.635 328.658 509.964 325.062 511.616C323.836 512.177 322.651 512.796 321.466 513.504C320.363 514.152 319.709 514.565 319.505 514.8C318.404 516.211 317.301 516.83 316.237 516.687C316.114 516.599 315.909 516.482 315.581 516.336C315.254 516.161 314.926 516.045 314.599 515.987C313.697 515.608 312.878 515.17 312.14 514.702C311.484 514.176 311.196 513.736 311.318 513.413C311.318 513.267 311.195 513.032 310.989 512.71C310.743 512.329 310.333 511.978 309.677 511.657C308.036 509.96 307.582 508.435 308.356 507.084C308.681 506.232 308.679 505.762 308.352 505.675C308.106 505.529 308.023 505.207 308.022 504.737C308.022 504.59 308.021 504.326 308.02 503.916C308.019 503.534 307.936 503.153 307.853 502.742C307.729 502.127 307.728 501.774 307.85 501.686C307.932 501.539 308.505 501.567 309.487 501.799C310.224 501.885 310.96 501.795 311.614 501.559C312.35 501.322 313.576 500.791 315.21 499.906C316.273 499.375 317.253 498.844 318.152 498.372C319.01 497.901 319.501 497.635 319.623 497.547C319.827 497.312 319.621 496.696 318.964 495.671C318.306 494.587 317.65 493.914 316.994 493.681C316.216 493.214 315.394 492.159 314.531 490.519C313.749 488.819 313.294 486.942 313.206 484.889C313.08 483.657 313.199 481.925 313.52 479.724C313.841 477.464 314.163 475.115 314.483 472.679C314.886 470.272 315.331 468.158 315.776 466.338C316.18 464.459 316.586 463.372 316.913 463.049C317.647 462.343 318.054 461.256 318.05 459.759C318.048 459.055 318.087 458.468 318.209 457.999C318.412 457.529 318.616 457.293 318.861 457.293C319.189 457.292 319.434 457.056 319.678 456.586C319.881 456.116 319.84 455.823 319.512 455.648C319.389 455.501 319.388 455.12 319.509 454.474C319.589 453.858 319.751 453.241 319.995 452.595C320.198 451.978 320.483 451.655 320.81 451.654C321.138 451.653 321.302 451.946 321.304 452.474C321.386 452.797 321.549 452.474 321.792 451.534C321.873 451.152 322.036 450.8 322.28 450.476C322.484 450.094 322.647 449.859 322.769 449.771C322.974 449.712 323.177 449.271 323.421 448.478C323.746 447.626 323.948 446.804 324.069 446.012C324.149 445.249 324.107 444.838 323.902 444.838C323.656 444.839 323.125 444.929 322.266 445.078C321.366 445.256 320.344 445.405 319.158 445.555C316.745 446.119 313.963 446.449 310.813 446.516C307.745 446.613 305.126 446.502 302.956 446.185C300.541 445.722 298.247 444.907 296.076 443.739C293.863 442.571 292.837 441.576 292.958 440.696C292.957 440.461 292.833 440.08 292.627 439.523C292.421 438.995 291.97 438.439 291.314 437.883C290.001 436.801 289.467 436.01 289.671 435.54C289.668 434.601 292.445 432.569 298.002 429.415C300.371 427.942 301.923 427.116 302.578 426.938C303.314 426.79 303.233 427.23 302.254 428.23C301.355 428.878 301.151 429.172 301.602 429.171C302.133 429.169 302.992 428.874 304.218 428.225C305.402 427.518 306.22 427.251 306.671 427.397C307.203 427.483 306.917 427.866 305.855 428.573C305.284 428.985 304.876 429.456 304.55 429.985C304.305 430.455 304.103 431.13 303.9 431.981C303.331 433.391 302.803 434.566 302.273 435.507L301.295 436.918L303.26 437.265C305.102 437.671 308.211 437.428 312.587 436.536C316.922 435.673 321.419 434.488 325.998 432.979C327.633 432.447 328.696 432.033 329.268 431.797C329.799 431.502 330.003 431.149 329.92 430.739C329.469 430.212 329.958 429.624 331.388 428.974C332.246 428.356 333.021 427.444 333.673 426.269C334.324 425.035 334.404 424.36 333.995 424.273C333.422 424.216 333.421 423.863 333.992 423.216C334.645 422.599 335.217 422.274 335.79 422.273C336.322 422.271 336.606 421.654 336.603 420.393C336.6 419.395 336.925 418.455 337.578 417.573C338.23 416.633 338.883 416.161 339.538 416.16C339.742 416.159 339.865 415.983 339.864 415.572C339.616 414.957 339.737 414.223 340.185 413.341C340.715 412.489 341.245 412.018 341.818 411.929C342.554 411.868 342.88 411.427 342.796 410.635C342.795 410.019 342.876 409.696 343.121 409.695C343.653 409.694 343.816 409.429 343.61 408.872C343.688 407.405 344.259 406.641 345.241 406.638C345.895 406.636 345.977 406.46 345.567 406.05C344.992 405.582 345.155 404.966 346.053 404.171C346.256 403.789 346.582 403.319 347.031 402.76C347.439 402.231 347.765 401.79 348.009 401.467C348.662 400.614 349.07 400.173 349.315 400.172C349.397 400.172 349.642 399.995 349.968 399.583C350.294 399.113 350.661 398.584 351.11 397.937C351.435 397.32 351.761 396.821 352.088 396.409C352.496 396.026 352.782 395.908 352.905 396.055C353.11 396.142 353.477 395.818 354.048 395.113C354.578 394.407 355.272 393.554 356.169 392.525C357.677 390.496 358.534 389.291 358.778 388.88C358.982 388.498 358.94 388.381 358.613 388.528C358.163 388.529 357.999 388.236 358.12 387.59C358.119 387.121 358.364 387.003 358.937 387.236C359.469 387.235 360.082 386.998 360.736 386.527C361.471 385.909 361.798 385.82 361.717 386.29C361.718 386.701 361.229 387.347 360.249 388.289C359.474 389.23 358.292 390.876 356.662 393.228C355.113 395.579 353.32 398.342 351.283 401.458C349.327 404.515 347.371 407.659 345.416 410.863C343.46 414.095 341.668 417.093 340.039 419.914C338.409 422.677 337.106 424.939 336.129 426.732C335.151 428.465 334.704 429.376 334.827 429.435C334.827 429.435 334.908 429.405 335.154 429.316C335.358 429.257 335.644 429.168 335.971 429.079C336.176 428.932 336.828 427.992 337.928 426.257C339.11 424.552 340.373 422.613 341.677 420.497C342.98 418.234 344.121 416.236 345.098 414.502C346.157 412.797 346.768 411.798 346.891 411.563C347.095 411.416 347.462 410.945 348.032 410.151C348.562 409.299 349.092 408.476 349.663 407.682C350.192 406.83 350.681 406.007 351.129 405.214C351.659 404.45 351.985 403.979 352.107 403.803C352.434 403.655 352.761 403.273 353.086 402.627C353.412 402.01 353.738 401.422 354.063 400.864C354.471 400.158 355.041 399.277 355.693 398.16C356.427 397.072 357.242 396.043 358.14 395.102C358.792 394.161 359.485 393.162 360.259 392.045C361.116 390.957 361.768 390.104 362.216 389.457C362.624 388.84 363.113 388.164 363.684 387.458C364.337 386.694 364.867 385.988 365.315 385.341C365.846 384.812 366.865 383.547 368.415 381.577C370.046 379.637 371.759 377.578 373.636 375.461C375.471 373.196 377.225 371.079 378.856 369.109C380.57 367.168 381.63 365.991 381.957 365.58C383.263 364.344 383.792 363.345 383.586 362.641C383.462 362.26 383.42 362.055 383.42 362.055C383.502 362.055 383.625 362.172 383.749 362.406C384.077 362.728 384.567 362.58 385.22 361.933C385.546 361.462 385.709 361.081 385.708 360.758C385.462 360.377 385.543 359.995 385.869 359.584C386.277 359.113 386.563 359.054 386.686 359.347C386.769 359.523 387.382 359.198 388.484 358.403C389.546 357.549 390.77 356.46 392.076 355.107C393.464 353.783 394.688 352.606 395.668 351.577C395.872 351.43 396.239 351.106 396.811 350.635C397.464 350.105 398.035 349.546 398.607 348.987C399.791 348.045 400.485 347.397 400.729 346.986C400.933 346.604 400.483 346.84 399.422 347.694C398.646 348.341 398.278 348.46 398.277 348.049C398.358 347.667 398.806 347.109 399.582 346.402C400.562 345.695 400.929 345.284 400.724 345.108C400.601 344.962 400.07 345.198 399.089 345.817C398.109 346.465 397.497 346.995 397.293 347.465C397.172 347.876 396.519 348.494 395.334 349.348C394.232 350.143 393.537 350.497 393.209 350.41C392.759 350.176 392.635 349.795 392.879 349.237C392.877 348.386 392.713 348.298 392.387 349.003C391.938 349.415 391.57 349.446 391.242 349.124C390.996 348.831 391.158 348.361 391.729 347.714C392.136 346.95 392.954 346.508 394.181 346.417C394.835 346.415 395.857 346.031 397.287 345.235C398.676 344.38 400.963 342.848 404.149 340.639C409.785 336.81 413.667 334.599 415.752 334.036C417.918 333.267 419.226 332.677 419.675 332.265C420.002 332.117 420.657 331.998 421.638 331.908C422.62 331.846 423.643 331.756 424.747 331.665ZM337.293 495.27C337.05 495.975 337.991 495.943 340.075 495.145C341.056 494.849 342.446 494.405 344.327 493.843C346.167 493.222 347.843 492.66 349.396 492.186C351.032 491.713 351.931 491.475 352.177 491.475C352.709 491.473 354.181 491.088 356.593 490.289C357.574 490.052 358.474 489.815 359.373 489.578C360.232 489.341 360.886 489.222 361.336 489.22C361.664 489.22 362.032 489.16 362.481 488.983C362.89 488.835 363.217 488.717 363.462 488.628C363.993 488.157 364.77 487.92 365.752 487.918C366.734 487.915 368.288 487.559 370.495 486.849C373.971 485.901 378.183 485.009 383.09 484.116C388.08 483.164 393.274 482.328 398.632 481.61C403.949 480.833 408.94 480.262 413.521 479.927C415.894 479.774 417.776 479.622 419.085 479.443C420.475 479.204 421.13 479.056 421.048 478.968C420.924 478.734 419.983 478.59 418.264 478.506C416.627 478.452 415.522 478.484 414.991 478.632C414.868 478.721 414.173 478.81 412.864 478.873C411.637 478.964 410.164 478.997 408.445 479.002C406.809 479.006 405.09 479.099 403.372 479.25C401.613 479.431 400.345 479.61 399.609 479.847C397.851 480.262 396.583 480.383 395.846 480.209C395.191 480.064 394.046 480.214 392.41 480.687C391.756 480.865 391.184 481.013 390.775 481.161C390.325 481.25 389.957 481.251 389.629 481.164C389.383 481.018 389.015 481.019 388.484 481.167C387.912 481.492 387.053 481.641 385.866 481.644C385.416 481.645 384.435 481.824 382.921 482.121C381.49 482.36 380.018 482.686 378.505 483.072C376.869 483.487 375.397 483.784 374.088 484.022C372.862 484.26 372.166 484.38 371.962 484.38C371.716 484.381 371.226 484.499 370.49 484.736C369.836 484.973 369.222 485.18 368.691 485.328C367.914 485.506 367.137 485.684 366.401 485.921C365.747 486.157 365.256 486.276 364.929 486.277C364.479 486.278 363.865 486.368 363.129 486.516C362.352 486.694 361.575 486.872 360.84 487.109C359.204 487.671 358.223 487.938 357.896 487.939C357.568 487.939 356.137 488.295 353.643 489.006C351.108 489.717 348.901 490.398 346.938 491.019C346.039 491.432 344.526 491.847 342.359 492.322C339.17 493.27 337.495 494.272 337.293 495.27ZM335.505 499.852C335.179 500.176 335.056 500.323 335.179 500.322C335.261 500.322 335.874 500.174 336.978 499.848C337.632 499.7 338.205 499.493 338.777 499.256C339.431 499.02 339.84 498.872 340.085 498.784C340.289 498.724 341.148 498.429 342.701 497.955C344.337 497.423 346.135 496.86 348.098 496.298C350.142 495.676 351.859 495.202 353.168 494.876C353.699 494.728 354.231 494.579 354.803 494.402C355.457 494.165 355.825 494.018 355.948 493.929C356.356 493.694 356.847 493.575 357.42 493.573C357.747 493.572 358.115 493.542 358.565 493.453C358.974 493.393 359.424 493.216 359.873 492.98C361.059 492.683 362.899 492.209 365.434 491.557C366.416 491.408 367.479 491.199 368.706 490.961C369.892 490.665 370.832 490.427 371.486 490.25C373.122 489.952 375.167 489.477 377.702 488.825C378.888 488.528 380.033 488.232 381.137 487.994C382.2 487.698 382.854 487.52 383.099 487.519C384.081 487.282 385.635 486.985 387.843 486.568C390.134 486.18 392.588 485.792 395.205 485.375C397.823 484.986 400.154 484.628 402.24 484.3C404.408 484 405.839 483.821 406.494 483.819C406.903 483.818 407.476 483.816 408.131 483.814C408.867 483.754 409.685 483.664 410.585 483.573C412.425 483.187 414.43 482.947 416.639 482.853C418.807 482.788 421.467 482.693 424.658 482.597C426.704 482.591 428.095 482.558 428.749 482.469C429.486 482.408 429.772 482.29 429.567 482.114C429.443 481.88 428.174 481.766 425.801 481.772C423.387 481.72 420.605 481.727 417.454 481.794C414.386 481.803 411.604 481.986 409.109 482.286C406.9 482.468 404.241 482.739 401.091 483.129C398.024 483.548 394.956 483.967 391.929 484.444C388.862 484.922 386.04 485.399 383.422 485.875C380.887 486.293 379.169 486.679 378.188 487.063C377.738 487.152 376.757 487.39 375.244 487.775C373.813 488.102 372.218 488.458 370.501 488.844C365.471 490.119 361.382 491.186 358.234 492.045C355.045 492.846 353 493.438 352.019 493.822C351.692 493.911 351.243 494.059 350.711 494.295C350.262 494.473 349.935 494.532 349.73 494.533C349.607 494.533 348.912 494.74 347.604 495.125C346.377 495.451 345.069 495.836 343.679 496.309C340.082 497.581 337.956 498.408 337.303 498.791C336.649 499.115 336.036 499.469 335.505 499.852ZM352.124 410.023C352.654 409.318 353.184 408.583 353.755 407.789C354.284 406.937 354.651 406.261 354.895 405.791C355.098 405.262 355.424 404.674 355.872 404.028C356.28 403.322 356.687 402.822 357.014 402.499C357.422 402.028 357.83 401.558 358.156 401.087C358.482 400.558 358.726 400.118 358.971 399.794C359.051 399.325 359.459 398.678 360.111 397.796C360.845 396.855 361.579 395.914 362.231 394.974C363.088 394.12 363.782 393.326 364.353 392.621C364.882 391.856 365.168 391.386 365.167 391.21C365.167 390.975 366.023 389.77 367.776 387.565C369.611 385.301 371.773 382.625 374.302 379.567C377.891 375.332 380.583 372.097 382.459 369.804C384.417 367.539 385.967 365.774 387.191 364.51C388.374 363.186 389.639 361.862 390.945 360.509C391.802 359.656 392.659 358.832 393.557 358.037C394.414 357.184 394.944 356.596 395.189 356.273C395.841 355.332 396.535 354.626 397.311 354.154C397.515 353.919 398.046 353.448 398.944 352.742C399.801 352.035 400.659 351.27 401.556 350.387C402.291 349.623 403.23 348.74 404.332 347.798C405.393 346.798 406.373 346.003 407.272 345.443C408.007 344.913 408.17 344.736 407.761 344.972C407.434 345.149 406.658 345.65 405.474 346.504C404.249 347.387 403.187 348.124 402.207 348.743C401.226 349.303 400.613 349.568 400.409 349.569C399.836 349.57 399.591 349.865 399.592 350.393C399.594 350.95 399.186 351.538 398.451 352.156C398.125 352.392 397.553 352.833 396.818 353.452C396.165 354.099 395.553 354.717 395.023 355.334C393.472 356.835 392.573 357.453 392.246 357.219C391.999 356.751 391.631 356.84 391.1 357.457C390.652 358.104 390.367 358.486 390.285 358.633C390.286 358.809 390.49 358.838 390.94 358.749C391.267 358.601 391.431 358.571 391.431 358.63C391.513 358.63 391.431 358.689 391.104 358.748C390.86 359.16 390.614 359.278 390.287 359.102C390.163 358.956 389.632 359.222 388.652 359.928C388.081 360.722 388.001 361.104 388.328 361.103C388.655 361.102 388.656 361.307 388.329 361.69C388.003 362.16 387.717 362.337 387.512 362.161C387.062 362.016 386.939 362.134 387.186 362.514C387.391 362.837 386.861 363.513 385.555 364.514C383.021 365.929 381.879 367.223 382.128 368.396C382.129 368.807 381.884 368.984 381.475 368.985C380.902 368.927 380.657 369.104 380.658 369.574C380.863 369.661 380.904 369.778 380.823 369.925C380.7 370.102 380.537 370.161 380.332 370.161C380.209 370.162 379.76 370.515 379.026 371.221C378.373 371.927 377.598 372.751 376.741 373.692C375.843 374.574 374.946 375.633 373.967 376.868C372.988 378.132 372.214 379.103 371.684 379.808C371.031 380.602 370.419 381.337 369.889 382.043C369.441 382.69 369.237 383.101 369.238 383.336C368.994 383.894 368.627 384.364 368.096 384.747C367.443 385.394 367.035 385.894 366.954 386.276C366.955 386.452 366.873 386.628 366.792 386.863C366.67 387.098 366.507 387.216 366.302 387.217C365.976 387.452 365.69 387.864 365.487 388.392C365.488 388.862 365.162 389.274 364.508 389.569C363.854 389.805 363.528 390.099 363.528 390.393C363.529 390.481 363.284 390.863 362.877 391.568C362.429 392.274 361.94 393.038 361.41 393.802C359.656 395.919 358.229 397.742 357.169 399.212C356.068 400.624 355.375 401.652 355.049 402.269C354.601 403.151 354.072 404.003 353.419 404.856C353.175 405.267 352.931 405.737 352.605 406.266C352.279 406.737 351.993 407.089 351.789 407.325C351.341 407.883 350.526 409.147 349.344 411.087C348.122 413.056 346.778 415.26 345.27 417.67C343.844 420.021 342.581 422.108 341.522 423.901C340.545 425.722 340.057 426.692 340.057 426.839C340.058 427.015 340.262 427.043 340.712 426.954C341.244 426.806 341.693 426.541 342.019 426.129C342.346 425.982 342.713 425.541 343.162 424.835C343.569 424.13 344.058 423.395 344.629 422.601C344.954 421.896 345.32 421.162 345.768 420.368C346.298 419.516 346.665 418.899 346.909 418.487C347.113 418.105 347.438 417.547 347.887 416.842C348.294 416.136 348.701 415.49 349.027 414.843C349.557 414.138 350.087 413.315 350.657 412.374C351.186 411.434 351.675 410.67 352.124 410.023ZM364.527 396.611C364.854 396.61 365.018 396.492 365.017 396.257C365.016 395.876 364.852 395.788 364.525 396.024C364.075 396.113 363.871 396.231 363.872 396.378C363.872 396.554 364.077 396.612 364.527 396.611ZM363.713 398.256C364.366 397.785 364.407 397.55 363.875 397.551C363.425 397.552 363.098 397.788 362.895 398.258C362.773 398.581 362.651 398.816 362.569 398.963C362.447 399.139 362.406 399.198 362.406 399.198C362.406 399.198 362.488 399.139 362.733 398.963C363.06 398.815 363.386 398.579 363.713 398.256ZM361.653 423.612C361.652 423.466 361.652 423.348 361.652 423.26C361.651 423.113 361.651 423.025 361.651 423.025C361.528 423.026 361.161 423.232 360.507 423.615C359.935 424.086 360.018 424.321 360.673 424.319C361.327 424.317 361.654 424.082 361.653 423.612ZM358.376 422.213C359.887 421.358 361.807 420.15 364.094 418.559C366.381 416.998 368.668 415.378 370.955 413.729C372.017 412.875 373.242 411.962 374.549 411.02C375.938 410.077 376.999 409.312 377.652 408.664C378.387 408.134 379.041 407.663 379.613 407.251C380.143 406.78 380.47 406.515 380.592 406.427C380.592 406.28 381 405.839 381.898 405.132C382.756 404.426 383.776 403.601 385.001 402.659C386.308 401.717 387.86 400.539 389.738 399.126C391.576 397.654 393.168 396.358 394.474 395.24C395.863 394.151 397.169 393.12 398.394 392.178C399.701 391.177 400.436 390.588 400.681 390.411C401.417 390.116 401.825 389.792 401.824 389.469C401.824 389.323 402.068 388.999 402.64 388.528C403.17 387.999 403.823 387.352 404.599 386.645C406.558 384.997 408.028 383.79 409.008 382.995C409.988 382.142 410.723 381.436 411.294 380.877C411.947 380.347 412.518 379.67 413.089 378.877C413.742 378.259 414.313 377.758 414.885 377.346C415.416 376.875 415.742 376.61 415.865 376.522C416.192 376.286 416.886 375.639 417.987 374.521C419.171 373.344 419.823 372.58 419.945 372.169C419.944 371.875 420.352 371.463 421.251 370.991C421.905 370.755 422.763 370.048 423.864 368.872C424.925 367.695 425.537 366.843 425.658 366.285C425.657 365.904 425.902 365.698 426.475 365.696C426.679 365.637 426.965 365.313 427.29 364.755C427.698 364.226 428.024 363.667 428.268 363.109C429.124 361.699 429.735 360.993 430.063 360.992C430.717 360.99 431.411 360.401 432.186 359.226C433.042 358.05 433.571 357.051 433.814 356.17C433.895 355.7 434.016 355.289 434.138 354.878C434.219 354.496 434.341 354.261 434.464 354.173C434.668 354.114 434.79 353.937 434.79 353.703C434.871 353.468 434.993 353.233 435.115 352.998C435.114 352.616 435.522 352.116 436.42 351.468C437.401 350.938 437.767 350.232 437.56 349.353C437.435 348.502 437.639 348.238 438.213 348.529C438.95 348.762 439.359 348.585 439.357 347.94C439.356 347.705 439.438 347.441 439.682 347.117C439.886 346.735 440.049 346.471 440.171 346.294C440.579 345.824 440.741 345.354 440.658 344.885C440.534 344.357 440.206 344.064 439.674 344.066C439.224 344.067 438.571 344.626 437.714 345.714C436.94 346.831 436.492 347.712 436.412 348.417C436.169 349.298 435.925 349.709 435.597 349.71C435.147 349.711 434.984 349.829 435.107 350.063C435.108 350.298 434.864 350.739 434.456 351.356C434.13 352.003 433.722 352.297 433.313 352.298C432.986 352.299 432.822 352.505 432.823 352.886C432.579 353.356 432.212 353.592 431.68 353.594C431.107 353.595 430.902 353.361 431.023 352.891C431.226 352.362 432 351.128 433.305 349.247C434.284 348.012 434.935 346.954 435.26 346.073C435.667 345.221 435.951 344.076 436.07 342.667C436.272 341.727 436.392 340.906 436.39 340.201C436.388 339.438 436.305 338.999 436.223 338.911C435.977 338.618 434.423 338.769 431.478 339.393C429.598 339.955 428.126 340.458 427.063 340.93C426.083 341.402 424.203 342.552 421.508 344.349C418.894 346.175 416.811 347.647 415.3 348.825C413.748 349.944 412.442 351.004 411.381 352.004C410.278 352.946 409.013 354.094 407.625 355.418C406.646 356.36 405.585 357.301 404.523 358.243C403.544 359.126 402.89 359.656 402.564 359.891C402.237 360.068 401.828 360.333 401.42 360.716C400.971 361.128 400.645 361.54 400.442 362.01C400.197 362.333 399.667 362.921 398.81 363.774C398.034 364.569 397.382 365.363 396.852 366.127C396.077 366.921 395.424 367.598 394.893 368.127C394.322 368.686 394.077 369.039 394.078 369.186C394.078 369.274 393.833 369.48 393.425 369.774C393.098 370.098 392.69 370.481 392.282 370.951C391.302 371.599 390.322 372.453 389.343 373.541C388.364 374.57 387.875 375.364 387.876 375.892C387.754 375.98 387.631 376.186 387.55 376.48C387.428 376.715 387.265 376.891 387.061 376.951C386.407 377.363 386.408 377.715 387.063 378.007C387.268 378.094 387.146 378.417 386.739 378.947C386.29 379.505 385.434 380.535 384.128 382.005C383.149 383.035 382.251 384.005 381.517 384.946C380.865 385.828 380.539 386.328 380.539 386.475C380.213 386.886 379.723 387.24 379.069 387.535C378.293 387.948 377.926 388.447 377.928 389.064C377.602 389.857 377.277 390.444 376.95 390.827C376.625 391.532 375.972 392.326 374.992 393.179C374.218 394.355 373.565 395.031 373.034 395.18C372.38 395.357 372.053 395.71 372.055 396.238C371.811 397.119 371.241 398.089 370.262 399.177C368.304 401.471 367.326 403.029 367.329 403.88C367.329 404.056 367.003 404.673 366.352 405.76C365.782 406.877 365.13 408.081 364.397 409.404C363.623 410.668 362.849 411.726 362.114 412.579C361.87 412.99 361.626 413.402 361.299 413.872C360.973 414.284 360.81 414.519 360.81 414.577C360.688 414.666 360.566 414.901 360.485 415.282C360.363 415.606 360.2 415.929 359.996 416.223C359.344 417.017 359.018 417.516 359.018 417.751C359.019 417.927 359.672 417.515 360.979 416.572C362.368 415.63 364.655 413.951 367.84 411.507C368.82 410.654 369.84 409.829 370.943 409.034C372.005 408.269 372.822 407.738 373.394 407.502C373.802 407.207 374.456 406.678 375.354 405.971C376.334 405.264 377.232 404.616 378.131 403.968C378.865 403.262 379.6 402.673 380.254 402.202C380.989 401.672 381.438 401.378 381.561 401.377C381.766 401.377 381.888 401.23 381.887 400.907C381.968 400.672 382.295 400.29 382.866 399.731C383.519 399.201 384.581 398.376 386.133 397.257C388.624 395.373 391.563 393.018 394.952 390.192C398.3 387.366 401.198 384.865 403.606 382.657C405.239 381.098 406.382 380.244 407.036 380.066C407.567 379.771 408.384 378.977 409.485 377.713C409.893 377.183 410.301 376.713 410.627 376.301C410.953 375.919 411.157 375.713 411.28 375.713C411.607 375.712 411.852 375.476 412.097 375.006C412.096 374.625 412.3 374.419 412.75 374.418C412.75 374.418 412.831 374.388 413.077 374.299C413.404 374.152 413.608 373.917 413.73 373.593C414.055 373.064 414.585 372.359 415.361 371.477C416.095 370.624 416.666 370.153 416.993 370.064C417.524 369.681 418.463 368.651 419.768 367.005C420.42 366.299 421.073 365.652 421.726 365.004C422.379 364.387 422.788 364.063 423.033 364.062C423.769 363.913 424.097 364.118 424.017 364.646C423.895 365.204 423.365 365.763 422.384 366.294C421.813 366.706 421.078 367.412 420.099 368.412C419.201 369.354 418.385 370.265 417.651 371.118C416.876 372.001 416.427 372.589 416.346 372.882C416.347 373.058 416.184 373.235 415.857 373.47C415.612 373.706 415.408 373.941 415.204 374.176C414.632 374.413 414.142 374.766 413.734 375.237C413.285 375.649 412.918 376.06 412.592 376.531C412.347 376.766 411.612 377.472 410.306 378.649C409.082 379.826 407.694 381.18 406.061 382.651C404.428 384.064 402.836 385.447 401.326 386.771C399.897 388.037 398.917 388.89 398.387 389.361C398.142 389.538 397.57 390.068 396.591 391.009C395.693 391.892 394.631 392.775 393.325 393.717C391.447 395.307 389.405 397.014 387.119 398.898C384.833 400.723 382.628 402.401 380.586 403.962C378.626 405.552 377.074 406.671 376.012 407.378C375.441 407.849 374.583 408.614 373.399 409.615C372.175 410.557 370.949 411.499 369.643 412.441C368.418 413.383 367.274 414.267 366.213 415.032C365.232 415.739 364.579 416.181 364.252 416.329C363.354 416.977 362.21 417.743 360.821 418.685C359.514 419.628 358.371 420.511 357.391 421.276C356.493 422.071 355.963 422.63 355.759 422.924C355.433 423.482 355.434 423.717 355.761 423.628C356.088 423.568 356.946 423.097 358.376 422.213ZM444.586 344.874C444.586 344.639 444.3 344.875 443.77 345.581C443.322 346.286 442.833 347.167 442.304 348.166C441.53 349.518 440.837 350.635 440.185 351.576C439.615 352.457 438.922 353.457 438.065 354.633C437.168 355.809 435.946 357.543 434.315 359.807C430.074 365.393 424.24 371.629 416.852 378.514C409.547 385.429 400.361 393.288 389.255 402.061C384.764 405.594 381.334 408.302 378.966 410.187C376.679 412.07 374.801 413.572 373.413 414.661C371.984 415.692 370.309 416.899 368.349 418.313C366.593 419.491 365.245 420.522 364.265 421.375C363.367 422.17 363 422.64 363.123 422.787C363.328 422.786 364.023 422.432 365.248 421.725C366.433 421.018 367.781 420.163 369.333 419.132C370.967 418.13 372.315 417.217 373.418 416.422C374.602 415.568 375.214 415.067 375.214 414.891C375.213 414.744 375.377 414.539 375.703 414.303C376.112 414.009 376.52 413.714 376.847 413.478C377.828 413.006 378.399 412.506 378.643 411.948C378.643 411.801 378.887 411.478 379.459 411.007C380.112 410.477 380.847 409.947 381.746 409.475C383.462 408.297 385.34 407.059 387.301 405.705C389.261 404.291 390.894 403.054 392.201 401.936C393.589 400.846 394.324 400.228 394.323 400.052C394.323 399.906 394.486 399.7 394.813 399.464C395.221 399.228 395.63 398.993 395.957 398.757C397.019 398.138 397.59 397.638 397.589 397.227C397.793 396.757 398.16 396.521 398.733 396.52C399.265 396.518 399.551 396.341 399.55 395.931C399.876 395.402 401.019 394.372 402.979 392.87C403.959 392.251 404.694 391.692 405.266 391.221C405.919 390.691 406.245 390.367 406.245 390.279C406.245 390.221 406.408 390.044 406.735 389.808C407.143 389.573 407.552 389.337 407.879 389.101C408.941 388.482 409.513 388.011 409.512 387.689C409.715 387.218 410.041 386.866 410.491 386.63C410.695 386.57 410.981 386.394 411.308 386.158C411.634 385.864 411.879 385.54 412.124 385.217C413.103 384.275 414.45 382.951 416.205 381.216C417.919 379.509 419.633 377.979 421.266 376.625C421.92 376.154 422.573 375.565 423.226 374.859C423.878 374.095 424.408 373.418 424.857 372.86C425.836 371.683 426.652 370.742 427.304 370.036C427.957 369.272 428.447 368.83 428.774 368.741C428.856 368.683 429.101 368.447 429.427 368.035C429.835 367.565 430.324 367.065 430.896 366.506C431.304 366.035 431.793 365.447 432.364 364.741C432.894 364.036 433.384 363.506 433.833 363.094C434.689 362.007 435.301 361.301 435.627 360.977C436.688 359.742 437.626 358.478 438.4 357.214C439.256 355.979 439.744 354.922 439.864 354.041C440.067 353.337 440.516 352.807 441.169 352.395C441.496 352.247 441.823 351.894 442.148 351.336C442.474 350.807 442.678 350.337 442.799 349.926C443.002 349.397 443.206 348.839 443.45 348.281C443.775 347.664 444.019 347.106 444.264 346.636C444.467 346.254 444.63 345.901 444.752 345.578C444.833 345.196 444.791 344.962 444.586 344.874Z" fill="white"/>
</g>
<mask id="mask7_3_336" style="mask-type:luminance" maskUnits="userSpaceOnUse" x="453" y="317" width="247" height="205">
<path d="M453.694 318.226L698.744 317.574L699.283 520.38L454.234 521.032L453.694 318.226Z" fill="white"/>
</mask>
<g mask="url(#mask7_3_336)">
<path d="M695.805 354.417C695.684 355.062 695.645 355.943 695.648 357.116C695.651 358.231 695.859 359.404 696.312 360.636C696.519 361.574 696.563 362.483 696.483 363.335C696.485 364.127 696.202 365.419 695.675 367.21C695.107 369.03 694.701 370.205 694.375 370.734C694.131 371.292 693.641 371.792 692.906 372.264C691.803 372.736 691.272 373.266 691.274 373.794C691.357 374.263 691.276 374.792 690.95 375.321C690.624 375.879 690.175 376.115 689.643 376.028C689.315 376.029 689.355 375.648 689.803 374.854C690.455 373.62 690.535 372.974 690.126 372.975C689.676 372.977 688.982 373.683 688.004 375.094C687.555 375.74 687.025 376.358 686.372 376.976C685.719 377.623 685.147 378.035 684.739 378.271C684.167 378.507 683.799 378.626 683.594 378.626C683.348 378.568 683.143 378.275 682.937 377.807C682.935 377.102 683.261 376.485 683.914 375.926C684.444 375.162 684.647 374.721 684.565 374.633C684.565 374.575 684.32 374.693 683.912 374.987C683.585 375.311 683.136 375.752 682.606 376.282C681.382 377.693 680.524 378.253 679.991 377.932C679.664 377.698 679.213 377.582 678.681 377.583C677.699 377.439 678.065 376.646 679.821 375.233C681.658 373.82 683.167 372.026 684.389 369.822C685.57 367.647 686.423 365.357 686.989 363.008C687.515 360.6 687.55 358.488 687.136 356.67C686.889 356.142 686.724 355.585 686.641 355.028C686.64 354.5 686.679 354.147 686.802 353.971C686.801 353.502 686.677 353.209 686.472 353.033C686.022 353.034 685.898 352.624 686.141 351.743C686.14 351.127 685.851 350.453 685.318 349.75C684.743 348.989 684.415 348.813 684.334 349.283C684.212 349.606 684.008 349.753 683.681 349.754C683.231 349.755 683.108 349.58 683.352 349.168C683.678 348.786 683.596 348.463 683.186 348.23C682.858 347.996 682.367 347.968 681.713 348.116C681.058 348.294 679.993 347.857 678.599 346.834C677.944 346.366 677.288 346.016 676.633 345.783C676.059 345.549 675.731 345.374 675.649 345.198C675.322 345.199 674.707 344.849 673.846 344.147C673.271 343.385 672.697 342.976 672.042 342.978C671.142 342.98 670.569 342.923 670.242 342.748C669.914 342.602 669.831 342.338 670.076 341.927C670.279 341.398 670.237 341.076 669.91 340.988C669.582 340.931 669.255 341.078 668.929 341.461C668.357 341.873 668.275 341.785 668.601 341.227C668.681 340.757 668.313 340.582 667.454 340.643C666.472 340.645 666.062 340.617 666.308 340.529C666.634 340.234 666.347 339.912 665.487 339.592C664.709 339.3 664.095 339.243 663.686 339.479C663.236 339.568 662.377 339.483 661.067 339.251C659.757 339.02 658.447 338.76 657.137 338.44C655.908 338.062 655.212 337.741 655.007 337.507C654.883 337.214 654.35 336.981 653.368 336.807C652.467 336.663 650.585 336.521 647.638 336.353C643.137 336.13 640.517 335.785 639.78 335.318C639.124 334.938 638.551 334.822 638.142 334.97C638.02 335.058 637.242 335.09 635.851 335.093C634.542 335.097 633.069 335.071 631.432 334.988C629.795 334.845 628.199 334.82 626.685 334.883C625.13 334.975 624.108 335.095 623.576 335.243C622.268 335.658 620.345 335.663 617.848 335.259C614.001 334.975 611.505 334.806 610.318 334.809C609.091 334.813 608.273 334.903 607.864 335.05C607.292 335.375 606.801 335.523 606.392 335.524C605.737 335.526 604.96 335.704 604.102 335.999C602.875 336.325 602.139 336.474 601.812 336.475C601.239 336.477 600.503 336.596 599.522 336.833C598.949 337.011 598.54 337.071 598.213 337.071C597.885 337.072 597.64 337.073 597.558 337.073C597.558 336.926 596.78 336.958 595.267 337.197C593.713 337.377 592.199 337.557 590.686 337.796C589.132 337.976 588.232 338.154 587.905 338.39C587.783 338.39 587.578 338.361 587.25 338.274C586.923 338.128 586.636 338.012 586.431 337.924C585.53 337.633 584.957 337.576 584.63 337.812C584.304 338.047 583.527 338.167 582.34 338.17C581.358 338.114 580.212 338.176 578.904 338.414C577.595 338.652 576.695 338.889 576.287 339.125C576.042 339.302 575.143 339.656 573.507 340.189C571.872 340.75 570.891 340.988 570.563 340.901C570.113 340.902 570.072 340.667 570.398 340.197C570.602 339.962 570.315 339.904 569.579 339.964C568.925 340.142 568.188 340.203 567.452 340.205C566.674 340.06 565.897 340.15 565.161 340.446C564.507 340.77 564.222 341.094 564.345 341.387C564.428 341.856 564.184 342.179 563.529 342.328C562.875 342.506 561.484 342.539 559.438 342.456C556.819 342.404 555.06 342.673 554.203 343.291C553.1 343.852 551.914 344.119 550.604 344.123C550.155 344.212 549.664 344.33 549.132 344.479C548.56 344.656 548.151 344.804 547.824 344.952C547.498 345.275 546.68 345.629 545.372 346.014C544.064 346.429 543.287 346.577 543.082 346.49C542.508 346.198 541.813 346.259 540.955 346.73C540.056 347.143 539.156 347.322 538.174 347.325C537.274 347.268 536.129 347.447 534.739 347.92C533.308 348.394 532.532 348.836 532.451 349.218C532.329 349.629 532.125 349.629 531.796 349.219C531.55 348.985 530.896 349.046 529.833 349.342C528.851 349.579 527.87 350.051 526.89 350.758C525.91 351.23 525.174 351.467 524.764 351.468C524.11 351.411 522.883 351.561 521.165 351.947C519.53 352.362 517.771 352.866 515.932 353.487C514.051 354.049 512.498 354.611 511.19 355.142C510.863 355.231 510.25 355.438 509.391 355.734C508.614 355.971 507.756 356.208 506.774 356.445C504.812 356.92 503.422 357.364 502.686 357.747C502.114 357.983 501.542 358.19 500.887 358.339C500.765 358.427 500.438 358.545 499.906 358.693C499.334 358.871 498.802 359.048 498.271 359.285C497.822 359.462 497.004 359.757 495.819 360.23C494.715 360.702 493.571 361.234 492.386 361.765C484.211 365.014 478.326 367.641 474.731 369.675C471.217 371.739 469.218 373.68 468.691 375.56C468.244 376.969 468.78 378.318 470.338 379.546C471.855 380.715 474.968 382.115 479.678 383.746C484.347 385.318 491.308 387.412 500.481 390.028C503.429 390.901 506.214 391.744 508.834 392.588C511.537 393.373 513.298 393.926 514.076 394.217C515.059 394.626 516.124 395.092 517.353 395.617C518.541 396.083 519.565 396.521 520.466 396.9C523.62 398.065 526.857 399.876 530.137 402.273C533.499 404.699 536.452 407.303 538.996 410.113C539.735 410.991 540.473 411.723 541.129 412.337C541.786 412.893 542.114 413.156 542.114 413.156C542.195 413.156 542.522 412.686 543.092 411.745C543.744 410.746 544.436 409.512 545.21 408.101C545.861 406.632 546.593 405.134 547.489 403.635C548.345 402.166 548.956 401.108 549.281 400.462C551.318 396.876 552.906 394.085 554.005 392.116C555.064 390.089 555.797 388.678 556.122 387.885C556.325 387.415 556.528 386.916 556.772 386.358C557.098 385.741 557.342 385.3 557.587 385.065C557.668 384.771 558.076 384.007 558.727 382.832C559.378 381.598 560.07 380.246 560.844 378.836C561.699 377.366 562.514 375.897 563.288 374.487C564.143 373.076 564.795 372.077 565.243 371.43C565.569 370.813 566.099 369.902 566.873 368.726C567.729 367.55 568.504 366.462 569.155 365.434C570.459 363.259 571.844 361.084 573.394 358.967C575.025 356.792 576.248 355.204 577.145 354.263C579.511 351.44 581.102 349.616 581.877 348.734C582.734 347.881 583.551 347.38 584.328 347.202C584.737 347.054 585.186 346.847 585.636 346.611C586.167 346.375 586.658 346.198 587.107 346.021C587.515 345.638 588.006 345.431 588.579 345.43C589.233 345.37 590.461 345.484 592.344 345.772C593.408 345.857 594.554 346.06 595.782 346.35C597.093 346.669 597.994 346.989 598.567 347.281C600.083 347.923 601.188 348.213 601.843 348.211C602.252 348.152 602.744 348.414 603.318 349.029C603.852 349.585 604.304 350.259 604.633 351.021C605.044 351.812 605.21 352.428 605.129 352.897C605.008 353.455 604.478 354.366 603.499 355.601C602.521 356.777 601.623 357.719 600.888 358.425C599.99 359.131 598.766 360.426 597.134 362.308C595.584 364.19 593.872 366.395 591.914 368.894C590.039 371.335 588.204 373.833 586.37 376.42C584.617 378.948 583.027 381.212 581.642 383.24C580.215 385.298 579.278 386.826 578.871 387.825C578.423 388.618 577.935 389.412 577.405 390.176C576.957 390.969 576.59 391.528 576.263 391.822C576.018 392.057 575.692 392.469 575.284 392.998C574.958 393.469 574.673 393.939 574.47 394.409C574.226 395.114 573.697 396.23 572.842 397.699C571.946 399.198 571.131 400.638 570.399 402.048C569.625 403.4 569.136 404.135 568.931 404.282C568.809 404.371 568.646 404.635 568.443 405.105C568.198 405.517 567.995 405.928 567.791 406.398C567.67 406.809 567.466 407.22 567.14 407.691C566.814 408.102 566.528 408.279 566.323 408.28C566.201 408.368 565.997 408.633 565.671 409.103C565.427 409.514 565.223 409.926 565.02 410.396C564.573 411.659 564.248 412.364 564.043 412.511C563.471 412.835 563.268 413.188 563.391 413.569C563.474 413.891 563.72 414.008 564.047 413.919C565.355 413.534 565.356 413.769 564.049 414.623C563.804 414.859 563.559 415.094 563.233 415.33C562.906 415.507 562.62 415.654 562.415 415.801C562.171 416.125 561.845 416.801 561.439 417.799C561.114 418.827 560.994 419.649 561.118 420.265C561.119 420.734 560.874 420.97 560.465 420.971C559.688 420.973 559.484 421.149 559.812 421.442C560.222 421.676 559.692 422.587 558.182 424.146C556.631 425.646 556.061 426.469 556.389 426.615C556.921 426.936 556.881 427.289 556.228 427.672C555.575 428.319 555.126 428.848 554.923 429.318C554.924 429.788 554.679 430.023 554.27 430.024C553.943 430.113 553.863 430.906 554.112 432.372C554.321 433.868 554.693 435.363 555.27 436.829C557.576 442.456 558.74 449.084 558.76 456.654C558.862 464.254 557.859 471.797 555.71 479.314C553.966 485.128 551.403 490.651 548.062 495.883C547.411 497.058 546.31 498.646 544.801 500.586C543.374 502.468 542.029 504.32 540.724 506.113C539.42 507.848 538.441 509.024 537.788 509.642C537.461 509.966 537.053 510.348 536.645 510.819C536.319 511.289 536.156 511.612 536.157 511.759C535.831 512.317 535.178 512.935 534.198 513.642C532.972 514.349 532.401 514.938 532.402 515.407C532.158 515.936 531.463 516.349 530.277 516.587C529.173 516.736 528.478 516.767 528.15 516.71C527.905 516.71 527.168 516.507 525.857 516.129C525.407 515.954 524.915 515.721 524.382 515.429C523.932 515.195 523.727 515.02 523.726 514.843C523.603 514.785 523.398 514.698 523.071 514.61C522.825 514.464 522.62 514.348 522.415 514.26C522.088 514.261 521.35 513.882 520.284 513.092C519.627 512.243 519.013 511.922 518.482 512.158C518.032 512.247 517.212 511.897 516.024 511.108C514.917 510.348 514.22 509.646 513.891 509.001C513.644 508.709 513.439 508.298 513.233 507.829C513.109 507.302 512.944 506.862 512.738 506.54C512.737 506.07 512.654 505.718 512.572 505.484C512.448 505.191 512.407 504.986 512.407 504.898C512.078 504.605 511.954 503.784 512.073 502.434C512.151 501.113 512.394 500.203 512.72 499.733C513.25 499.115 513.249 498.646 512.716 498.324C512.389 498.178 512.225 498.091 512.225 498.091C512.225 498.032 512.388 497.856 512.715 497.62C513.368 497.149 513.572 496.796 513.366 496.562C513.12 496.328 513.037 495.595 513.033 494.333C513.111 493.012 513.271 491.574 513.513 489.989C513.836 488.345 514.159 486.936 514.483 485.761C514.889 484.587 515.215 483.999 515.461 483.998C515.87 483.997 516.115 483.821 516.114 483.41C516.522 482.939 516.48 482.705 515.948 482.706C515.498 482.707 515.375 482.443 515.619 481.885C515.822 481.269 516.148 480.945 516.598 480.944C517.008 481.031 517.089 480.825 516.76 480.357C516.309 480.064 516.185 479.419 516.428 478.48C516.753 477.481 517.079 477.069 517.407 477.303C517.816 477.39 518.061 477.184 518.06 476.715C518.14 476.186 517.976 475.776 517.566 475.542C517.32 475.396 517.483 475.132 518.055 474.72C518.259 474.572 518.462 474.073 518.705 473.192C519.03 472.34 519.355 471.401 519.68 470.373C520.204 467.32 520.729 464.942 521.297 463.209C521.947 461.418 522.518 460.448 523.09 460.27C523.417 460.123 523.457 459.858 523.251 459.448C522.678 459.215 522.758 458.393 523.408 456.983C524.059 455.514 524.792 454.251 525.69 453.221C525.771 453.074 526.016 452.604 526.341 451.811C526.666 450.96 526.868 450.108 526.989 449.228C527.191 448.288 527.352 447.525 527.473 446.879C527.676 446.174 527.88 445.88 528.125 445.938C528.125 445.938 528.207 445.703 528.451 445.233C528.777 444.704 528.98 444.117 529.101 443.471C529.954 441.063 530.645 439.359 531.215 438.419C531.745 437.478 532.234 436.861 532.683 436.537C533.664 436.153 533.704 435.947 532.845 435.95C532.272 435.892 532.108 435.57 532.352 435.012C532.556 434.865 532.841 434.365 533.166 433.484C533.491 432.632 533.816 431.663 534.14 430.547C534.669 429.548 535.117 428.55 535.442 427.61C535.766 426.611 535.969 425.907 536.091 425.495C536.945 423.703 537.556 422.411 537.881 421.618C538.206 420.854 538.368 420.267 538.367 419.856C538.366 419.474 538.119 418.976 537.708 418.332C536.927 416.691 535.817 414.992 534.421 413.177C532.984 411.303 531.835 410.132 530.975 409.665C530.524 409.431 530.073 409.168 529.663 408.847C529.335 408.466 529.212 408.232 529.334 408.143C529.66 407.673 529.25 407.322 528.186 407.09C527.858 406.944 527.366 406.623 526.71 406.155C526.054 405.687 525.439 405.22 524.906 404.752C523.676 403.581 522.364 402.646 520.971 401.945C519.537 401.186 518.021 400.515 516.383 399.962C515.605 399.73 514.417 399.381 512.779 398.916C511.223 398.392 509.749 397.926 508.357 397.519C506.801 397.142 505.163 396.677 503.443 396.124C501.805 395.6 500.494 395.193 499.512 394.96C498.529 394.728 497.383 394.467 496.073 394.148C494.844 393.77 493.821 393.538 492.961 393.452C492.06 393.308 491.201 393.105 490.341 392.872C489.563 392.64 489.031 392.524 488.703 392.524C487.925 392.38 486.288 391.944 483.79 391.247C481.251 390.549 479.367 389.909 478.056 389.267C476.295 388.567 474.329 387.721 472.157 386.7C469.945 385.708 468.716 385.008 468.387 384.598C468.264 384.451 467.977 384.247 467.567 384.013C467.239 383.72 466.788 383.37 466.255 382.96C465.148 382.112 463.713 380.854 461.99 379.216C460.349 377.577 459.241 376.348 458.707 375.469C457.844 374.298 457.309 373.096 457.06 371.835C456.852 370.515 456.973 369.605 457.381 369.135C457.625 368.841 457.829 368.547 458.033 368.311C458.155 368.018 458.318 367.665 458.521 367.254C458.764 366.402 459.702 365.138 461.457 363.49C464.803 360.136 470.319 356.953 477.962 353.94C479.025 353.556 480.006 353.113 480.905 352.641C481.885 352.169 482.416 351.815 482.539 351.58C483.07 351.197 483.56 351.049 484.01 351.107C484.215 351.194 484.87 351.075 485.973 350.75C487.159 350.453 488.467 350.039 489.898 349.566C491.86 348.856 494.722 347.88 498.565 346.608C502.367 345.366 506.455 344.064 510.829 342.703C515.163 341.283 519.333 340.039 523.258 338.914C527.183 337.818 530.168 336.988 532.253 336.425C533.235 336.188 534.257 335.921 535.361 335.595C536.424 335.299 537.201 335.092 537.65 335.003C538.304 334.766 539.204 334.529 540.431 334.291C541.74 334.053 542.966 333.815 544.193 333.577C545.502 333.192 547.137 332.747 549.1 332.273C551.144 331.798 552.944 331.382 554.497 330.967C560.059 329.72 566.316 328.53 573.31 327.396C580.262 326.204 587.297 325.217 594.415 324.406C601.491 323.624 607.914 323.138 613.724 322.946C616.874 322.791 620.679 322.81 625.181 323.033C629.764 323.197 634.347 323.478 638.931 323.935C643.515 324.334 647.444 324.793 650.719 325.313C651.783 325.486 653.544 325.892 655.959 326.59C658.335 327.287 660.792 328.044 663.33 328.8C665.828 329.586 667.63 330.168 668.736 330.546C669.392 330.867 670.047 331.129 670.702 331.362C671.439 331.536 671.931 331.653 672.176 331.711C673.363 331.795 675.125 332.612 677.42 334.161C679.797 335.651 682.339 337.522 684.964 339.775C687.67 341.968 689.926 344.104 691.691 346.212C692.348 346.914 692.923 347.91 693.499 349.141C694.157 350.313 694.569 351.368 694.817 352.307C695.024 353.186 695.311 353.596 695.639 353.595C696.048 353.594 696.131 353.888 695.805 354.417ZM577.342 366.586C577.22 366.762 577.343 366.82 577.67 366.819C578.079 366.672 578.324 366.524 578.323 366.348C578.323 366.348 578.241 366.319 578.159 366.231C578.159 366.173 578.036 366.085 577.831 365.998C577.504 365.998 577.341 366.204 577.342 366.586ZM576.718 378.089C576.596 378.5 576.637 378.559 576.882 378.323C577.209 378.088 577.576 377.617 578.024 376.912C578.758 375.971 579.002 375.501 578.675 375.502C578.348 375.503 577.939 375.827 577.532 376.444C577.206 377.002 576.921 377.56 576.718 378.089ZM575.74 379.617C574.516 380.794 574.313 381.47 575.091 381.614C575.5 381.613 575.826 381.143 576.069 380.203C576.149 379.499 576.23 379.147 576.23 379.147C576.229 379.088 576.066 379.235 575.74 379.617ZM534.473 432.424C534.473 432.6 534.637 432.747 534.965 432.892C535.374 432.891 535.619 432.744 535.618 432.421C535.618 432.187 535.495 432.07 535.29 432.07C534.717 432.072 534.472 432.19 534.473 432.424ZM529.922 444.525C529.8 444.613 529.596 445.083 529.271 445.935C528.946 446.816 528.824 447.227 528.947 447.227C528.947 447.227 529.029 447.08 529.273 446.757C529.6 446.462 529.804 446.139 529.925 445.816C530.129 445.346 530.251 444.994 530.25 444.759C530.249 444.524 530.126 444.466 529.922 444.525ZM535.937 490.751C537.65 488.634 539.117 486.459 540.339 484.167C541.642 481.816 542.659 479.642 543.431 477.586C543.837 476.353 544.282 474.62 544.726 472.419C545.13 470.246 545.533 467.898 545.853 465.374C546.174 462.879 546.413 460.531 546.653 458.33C546.852 456.158 546.97 454.397 546.966 453.047L546.799 451.639L545.821 453.403C545.252 454.578 544.722 455.401 544.191 455.872C542.966 456.667 542.6 457.46 543.052 458.222C543.462 458.69 543.3 459.102 542.564 459.397C541.788 459.81 541.666 460.191 542.24 460.571C542.445 460.806 542.569 461.216 542.57 461.744C542.571 462.214 542.408 462.331 542.08 462.098C541.629 461.864 541.303 462.1 541.1 462.804C540.529 463.363 540.038 463.599 539.629 463.512C539.383 463.278 539.178 463.25 538.974 463.397C538.852 463.573 538.689 463.955 538.486 464.572L538.327 466.333L539.142 465.157C539.795 464.451 540.203 464.156 540.449 464.214C540.777 464.302 540.819 464.771 540.617 465.622C540.496 466.327 540.17 466.915 539.639 467.386C539.068 467.856 538.659 467.975 538.331 467.741C537.758 467.596 537.513 467.831 537.514 468.447C537.189 469.329 537.436 469.592 538.335 469.267C538.867 469.207 539.153 469.323 539.154 469.617C539.155 469.851 538.911 470.556 538.505 471.731C538.18 472.436 537.855 473.259 537.53 474.198C537.287 475.079 537.248 475.842 537.372 476.546C537.254 478.131 536.929 478.953 536.397 479.013C536.07 479.249 535.949 479.807 536.074 480.657C536.485 481.214 536.609 481.83 536.406 482.534C536.162 483.18 535.836 483.445 535.426 483.358C535.099 483.359 534.813 483.653 534.61 484.182C534.489 484.74 534.654 485.18 535.105 485.472C535.433 485.882 535.189 486.352 534.454 486.882C533.883 487.529 533.802 487.911 534.13 488.056C534.212 488.144 534.294 488.467 534.296 488.995C534.297 489.552 534.217 490.169 534.137 490.873C534.016 491.578 533.977 492.223 533.978 492.752C533.98 493.309 533.98 493.544 533.98 493.456C533.98 493.456 534.184 493.191 534.633 492.632C535.04 492.103 535.489 491.456 535.937 490.751ZM542.874 452.824C542.875 453.146 543.08 453.263 543.529 453.174C543.611 453.174 543.734 453.144 543.856 453.056C543.938 452.909 544.06 452.791 544.183 452.703C544.182 452.321 544.018 452.116 543.69 452.117C543.445 452.118 543.2 452.353 542.874 452.824ZM545.805 447.065C546.539 446.124 546.66 445.654 546.128 445.656C545.882 445.598 545.556 445.775 545.148 446.245C544.822 446.715 544.537 447.303 544.334 448.008C544.091 448.801 544.173 449.064 544.5 448.829C544.908 448.534 545.357 447.946 545.805 447.065ZM546.96 450.7C546.959 450.319 546.672 450.114 546.14 450.115C545.567 450.117 545.322 450.323 545.323 450.704C545.201 450.793 545.201 450.94 545.324 451.174C545.53 451.349 545.693 451.408 545.816 451.407C546.225 451.406 546.634 451.17 546.96 450.7ZM540.686 491.677C541.093 490.972 541.338 490.619 541.338 490.619C541.338 490.561 541.092 490.679 540.684 490.973C540.439 491.297 540.195 491.561 539.868 491.797C539.541 492.033 539.378 492.238 539.378 492.385C539.054 493.56 539.463 493.324 540.686 491.677ZM543.621 487.562C544.029 487.326 544.641 486.356 545.413 484.623C546.145 482.831 546.958 480.804 547.852 478.513C548.828 476.251 549.559 474.137 550.127 472.17C550.653 470.144 550.854 468.735 550.77 467.943C550.769 467.561 550.524 467.797 550.117 468.649C549.792 469.53 549.306 471.204 548.658 473.699C547.887 476.283 547.278 478.133 546.872 479.22C546.548 480.336 546.263 481.041 546.059 481.335C545.937 481.57 545.774 481.776 545.57 481.923C544.998 482.335 544.591 483.158 544.267 484.391C544.146 484.861 543.861 485.419 543.453 486.036C543.005 486.683 542.679 487.153 542.475 487.447C542.027 488.153 541.701 488.741 541.498 489.211C541.253 489.681 541.377 489.886 541.827 489.796C542.154 489.737 542.398 489.384 542.642 488.738C542.641 488.445 542.968 488.033 543.621 487.562ZM547.243 434.033C547.244 434.356 547.326 434.503 547.571 434.502C548.103 434.501 548.226 434.354 547.898 434.032C547.897 433.738 547.774 433.563 547.569 433.563C547.323 433.564 547.242 433.74 547.243 434.033ZM550.879 447.521C551.083 446.992 551.081 446.435 550.875 445.878C550.628 445.116 550.463 444.823 550.382 445.057C550.26 445.293 550.261 445.85 550.386 446.701C550.389 447.816 550.554 448.079 550.879 447.521ZM551.216 451.158C551.419 450.307 551.295 449.867 550.886 449.868C550.558 449.81 550.313 449.84 550.231 449.987C550.232 450.163 550.274 450.691 550.399 451.63C550.606 452.51 550.771 452.891 550.893 452.802C551.098 452.743 551.219 452.185 551.216 451.158ZM550.379 443.884C550.379 443.825 550.378 443.708 550.378 443.532C550.377 443.297 550.295 443.004 550.212 442.593C550.211 442.3 550.128 442.095 550.046 442.007C549.924 441.949 549.801 441.978 549.719 442.125C549.598 442.448 549.64 442.888 549.887 443.416C550.092 443.885 550.256 444.06 550.379 443.884ZM551.569 460.664C551.767 458.316 551.804 456.526 551.718 455.265C551.592 453.945 551.428 453.593 551.225 454.21C551.225 454.298 551.144 454.738 551.064 455.501C551.066 456.293 551.069 457.144 551.071 458.083C550.951 458.964 550.83 459.786 550.75 460.549C550.752 461.253 550.672 461.693 550.59 461.84C550.347 462.545 550.267 463.484 550.27 464.658C550.355 465.773 550.52 466.242 550.765 466.065C551.173 465.682 551.455 463.892 551.569 460.664ZM573.625 384.318L574.275 382.673L572.317 384.791C571.216 386.202 570.686 387.025 570.687 387.26C570.769 387.347 570.688 387.7 570.362 388.317C570.036 388.875 569.629 389.492 569.221 390.198C568.773 390.991 568.244 391.931 567.592 393.019C566.94 394.047 566.37 394.9 565.962 395.605C565.514 396.311 565.066 396.987 564.658 397.604C564.333 398.25 564.047 398.632 563.843 398.78C563.721 398.868 563.558 399.191 563.355 399.72C563.11 400.19 562.948 400.631 562.867 401.012C562.745 401.423 562.46 401.923 562.053 402.54C561.604 403.099 561.237 403.599 560.911 404.069C560.585 404.393 560.136 405.01 559.607 405.95C559.159 406.89 558.794 407.889 558.469 408.887C558.021 409.769 557.533 410.738 557.004 411.825C556.556 412.854 556.109 413.706 555.701 414.411C555.376 415.057 554.724 416.262 553.747 418.054C552.852 419.788 552.038 421.521 551.306 423.225C550.533 424.87 550.045 425.928 549.841 426.398C549.842 426.574 550.169 426.632 550.824 426.63C551.233 426.629 551.56 426.452 551.804 426.04C552.008 425.659 552.332 424.631 552.778 422.986C553.307 421.987 553.755 420.989 554.08 420.049C554.486 419.05 554.934 418.286 555.383 417.815C556.117 416.963 556.688 415.993 557.012 414.877C557.215 414.407 557.378 413.996 557.5 413.585C557.703 413.203 557.907 412.967 558.152 412.879C558.479 412.819 558.724 412.466 558.968 411.82C559.294 411.203 559.496 410.498 559.617 409.706C559.82 409.001 560.023 408.414 560.267 407.944C560.47 407.415 560.633 407.18 560.756 407.238C561.084 407.472 561.491 406.737 562.059 405.005C562.262 404.388 562.548 404.123 562.876 404.181C563.407 404.18 563.448 404.003 563.038 403.594C562.71 403.448 562.587 403.243 562.709 403.008C562.913 402.714 563.402 402.243 564.178 401.596C565.361 400.36 565.728 399.655 565.318 399.48C564.868 399.334 564.703 399.129 564.825 398.894C564.907 398.601 565.233 398.424 565.806 398.422C566.216 398.509 566.379 398.362 566.296 397.952C565.968 397.571 566.17 396.778 566.944 395.603C567.148 395.133 567.473 394.545 567.922 393.839C568.329 393.076 568.736 392.429 569.062 391.959C569.266 391.43 569.591 390.784 570.039 390.078C570.569 389.314 571.017 388.608 571.343 387.962C572.322 386.874 573.055 385.669 573.625 384.318ZM564.287 381.174C563.961 381.585 563.839 381.879 563.962 382.113C564.168 382.289 564.454 382.171 564.78 381.759C565.188 381.289 565.962 380.113 567.062 378.232C567.469 377.615 567.877 377.027 568.203 376.469C568.529 375.852 568.691 375.382 568.69 375.059C568.689 374.531 568.403 374.708 567.873 375.648C567.629 376.059 567.425 376.412 567.221 376.706C566.977 376.941 566.895 377.059 566.895 377.059C566.322 377.06 565.956 377.707 565.754 378.94C565.51 379.41 565.266 379.88 564.94 380.35C564.696 380.821 564.492 381.114 564.287 381.174ZM559.562 388.932C559.113 389.638 558.829 390.313 558.749 390.93C558.75 391.575 558.833 391.868 559.078 391.868C559.16 391.868 559.486 391.456 560.057 390.574C560.586 389.634 561.197 388.635 561.849 387.518C562.378 386.343 562.866 385.373 563.314 384.58C563.721 383.728 563.884 383.229 563.801 383.053C563.679 383.053 563.311 383.465 562.659 384.23C562.088 385.023 561.517 385.846 560.865 386.699C560.417 387.404 559.969 388.168 559.562 388.932ZM545.882 414.554C545.435 415.729 545.15 416.522 545.07 416.904C545.07 417.227 545.235 417.432 545.562 417.489C545.89 417.489 546.136 417.957 546.384 418.896C546.714 419.775 546.92 420.156 547.042 420.068C547.246 420.008 547.572 419.303 548.018 417.952C548.425 417.012 549.484 415.014 551.112 411.958C552.822 408.844 554.614 405.435 556.486 401.733C557.016 400.969 557.505 400.176 557.953 399.382C558.482 398.53 558.808 397.942 558.93 397.619C559.134 397.325 559.337 396.855 559.581 396.209C559.784 395.592 560.11 395.005 560.558 394.446C560.761 393.741 561.127 392.919 561.697 391.978C562.227 390.979 562.674 390.098 563 389.393C563.407 388.687 563.815 388.041 564.14 387.394C564.466 386.777 564.67 386.425 564.792 386.336C564.874 386.189 565.118 385.925 565.445 385.513C565.771 385.131 566.015 384.661 566.259 384.103C566.462 383.633 566.788 383.045 567.236 382.339C567.766 381.575 568.215 380.899 568.54 380.341C568.866 379.724 569.11 379.166 569.354 378.696C569.558 378.167 569.72 377.844 569.843 377.755C570.17 377.608 570.333 377.461 570.333 377.285C570.414 377.138 570.496 377.049 570.496 377.049C570.496 377.049 570.536 376.991 570.659 376.814C570.74 376.667 570.862 376.462 570.985 376.227C571.188 375.757 571.555 375.374 572.127 375.05C572.535 374.755 572.821 374.314 572.942 373.757C573.022 373.228 572.981 372.935 572.776 372.936C572.531 372.936 571.797 373.965 570.493 375.993C569.189 377.962 567.64 380.314 565.929 383.047C565.482 384.075 564.993 384.986 564.463 385.75C564.015 386.544 563.689 387.014 563.485 387.161C563.036 387.573 562.71 388.102 562.507 388.807C562.263 389.277 561.856 390.1 561.205 391.275C560.553 392.451 559.82 393.685 559.087 394.919C558.312 396.095 557.701 397.036 557.294 397.741L556.316 399.504L556.312 397.978C556.31 397.127 556.676 396.217 557.451 395.276C558.103 394.511 558.511 393.923 558.755 393.512C558.958 392.807 558.835 392.573 558.426 392.808C557.977 392.986 557.487 393.486 556.957 394.338C556.509 394.985 555.735 396.219 554.676 398.1C553.576 399.981 552.558 401.861 551.581 403.742C550.604 405.563 549.871 406.856 549.464 407.62C549.14 408.736 548.651 409.471 547.997 409.854C547.875 410.265 547.672 410.735 547.346 411.264C547.102 411.734 546.614 412.851 545.882 414.554ZM545.124 437.443C544.551 437.444 543.899 438.356 543.167 440.147C542.395 441.969 540.972 445.493 538.94 450.721C538.615 451.661 538.209 452.572 537.802 453.424C537.477 454.305 537.233 454.922 537.152 455.303C537.03 455.539 536.664 456.566 536.015 458.358C535.446 460.091 534.716 462.352 533.741 465.171C532.848 467.932 531.956 470.868 530.982 473.981C530.009 477.123 529.076 480.206 528.225 483.26C527.333 486.49 526.523 489.72 525.796 493.008C525.15 496.237 524.706 498.85 524.507 500.875C524.267 502.929 524.433 503.78 525.005 503.456C525.209 503.308 525.372 502.868 525.493 502.163C525.695 501.4 525.856 500.461 525.976 499.345C526.055 498.347 526.298 497.173 526.621 495.823C527.027 494.413 527.351 493.297 527.594 492.416C528.001 491.476 528.285 490.654 528.406 489.95C528.609 489.186 528.649 488.746 528.566 488.658C528.566 488.511 528.646 487.778 528.888 486.427C529.211 485.018 529.616 483.433 530.184 481.612C530.712 479.821 531.198 478.264 531.645 476.913C532.051 475.592 532.335 474.887 532.458 474.799C532.784 474.563 533.152 474.181 533.6 473.622C533.926 472.917 533.843 472.565 533.434 472.566C532.861 472.568 532.696 472.069 532.939 471.042C533.345 469.955 533.671 469.397 533.916 469.396C533.998 469.396 534.243 469.102 534.568 468.455C534.894 467.838 535.097 467.104 535.217 466.224C535.539 464.052 535.904 462.877 536.353 462.7C536.884 462.317 537.21 461.846 537.332 461.289C537.412 460.819 537.412 460.555 537.329 460.467C537.329 460.408 537.207 460.467 537.003 460.703C536.227 461.262 536.226 460.881 537 459.529C537.203 459.147 537.407 458.677 537.651 458.119C537.854 457.502 538.057 457.032 538.301 456.709C538.504 455.945 538.707 455.475 538.952 455.299C539.157 455.151 539.441 454.564 539.766 453.536C540.173 452.537 540.579 451.421 540.903 450.247C541.227 449.014 541.592 447.839 542.039 446.723C542.568 445.636 543.017 445.018 543.344 444.841C543.874 444.224 544.321 443.284 544.645 442.021C544.969 440.7 544.844 439.879 544.312 439.557C543.983 439.177 544.024 439.089 544.475 439.322C544.884 439.321 545.21 439.027 545.454 438.381C545.657 437.764 545.533 437.442 545.124 437.443ZM541 425.013C540.877 425.101 540.551 425.66 540.022 426.659C539.452 427.599 538.882 428.745 538.231 430.067C537.661 431.418 537.173 432.535 536.767 433.475C536.319 434.415 536.116 434.973 536.116 435.119C536.198 435.207 536.118 435.589 535.792 436.294C535.549 436.999 535.223 437.792 534.816 438.644C534.246 439.526 533.595 440.877 532.863 442.757C532.214 444.578 531.564 446.34 530.913 448.043C530.345 449.688 529.655 451.656 528.801 453.917C528.03 456.208 527.38 458.117 526.853 459.673C526.284 461.083 525.878 462.551 525.555 464.019C525.231 465.429 524.988 466.339 524.907 466.721C524.786 467.132 524.623 467.602 524.42 468.13C524.299 468.6 524.136 468.952 523.932 469.188C523.688 469.599 523.282 470.891 522.633 473.064C521.984 475.179 521.213 477.704 520.362 480.582C519.592 483.401 518.903 486.072 518.255 488.568C517.689 491.093 517.366 492.796 517.287 493.735C517.166 494.527 517.127 495.261 517.129 495.965C517.213 496.61 517.336 496.992 517.46 497.138C517.665 497.313 517.625 497.783 517.3 498.547C516.729 499.252 516.648 499.781 516.976 500.073C517.304 500.307 517.346 500.601 517.142 500.895C516.694 501.6 516.818 501.952 517.472 501.95C517.472 501.95 517.472 501.803 517.471 501.48C517.552 501.099 517.633 500.746 517.632 500.424C517.955 498.721 518.317 496.49 518.76 493.731C519.162 491.001 519.768 488.271 520.538 485.511C521.267 482.692 521.916 480.314 522.483 478.346C523.133 476.32 523.62 475.145 523.947 474.821C524.274 474.586 524.356 474.908 524.277 475.759C524.156 476.64 523.793 478.343 523.145 480.926C522.172 484.215 521.361 487.24 520.714 489.97C520.148 492.642 519.827 494.784 519.749 496.428C519.302 497.544 519.466 497.778 520.242 497.131C520.569 496.836 520.894 496.073 521.218 494.898C521.542 493.665 521.743 492.432 521.863 491.258C521.942 490.025 521.899 489.233 521.693 488.911C521.242 488.531 521.364 488.208 522.018 487.971C522.222 487.736 522.548 487.119 522.995 486.091C523.401 485.004 523.807 483.8 524.131 482.45C524.536 481.04 524.861 479.866 525.104 478.926C525.305 477.928 525.304 477.37 525.099 477.283C524.853 476.902 524.974 476.55 525.424 476.226C525.751 476.078 526.239 475.109 526.889 473.288C527.539 471.408 528.39 468.53 529.484 464.596C530.459 461.63 531.433 458.605 532.406 455.551C533.38 452.438 534.07 450.236 534.517 448.973C535.168 447.739 535.697 446.564 536.144 445.447C536.55 444.273 536.834 443.568 536.957 443.333C537.159 442.628 537.484 441.659 537.931 440.396C538.459 439.074 539.069 437.664 539.72 436.166C540.371 434.697 540.899 433.434 541.347 432.406C541.876 431.407 542.202 430.849 542.324 430.76C542.732 430.378 542.853 429.673 542.646 428.647C542.52 427.65 542.233 427.122 541.823 427.123C541.25 426.978 541.045 426.744 541.167 426.421C541.818 425.011 541.735 424.542 541 425.013ZM576.257 327.858C575.93 328.035 576.298 328.063 577.403 327.972C578.467 327.911 580.593 327.612 583.784 327.134C585.42 326.895 586.769 326.715 587.874 326.536C588.937 326.298 589.387 326.18 589.182 326.18C588.854 326.035 587.627 326.126 585.582 326.425C583.496 326.665 581.492 326.964 579.529 327.262C577.565 327.502 576.461 327.711 576.257 327.858ZM473.065 358.765C473.147 358.765 473.596 358.587 474.373 358.175C475.231 357.791 476.253 357.407 477.479 356.993C478.542 356.462 479.768 355.901 481.076 355.34C482.383 354.72 483.405 354.277 484.182 354.041C484.836 353.745 485.53 353.421 486.307 353.096C487.165 352.712 487.819 352.447 488.269 352.269C489.249 351.739 491.579 350.852 495.3 349.669C498.979 348.426 503.23 347.007 508.054 345.409C512.96 343.841 517.784 342.332 522.609 340.911C527.515 339.489 531.645 338.363 535.038 337.474C537.737 336.763 540.804 335.992 544.197 335.102C547.55 334.243 550.249 333.561 552.212 333.086C554.257 332.699 556.179 332.313 557.937 331.897C559.654 331.423 560.758 331.127 561.208 330.949C561.862 330.801 562.843 330.593 564.152 330.355C565.461 330.117 566.851 329.849 568.405 329.522C571.554 328.985 573.558 328.569 574.458 328.332C575.316 328.095 575.03 328.067 573.639 328.217C572.739 328.219 570.858 328.547 567.913 329.171C565.051 329.736 561.738 330.449 557.935 331.31C554.091 332.113 550.166 332.974 546.158 333.924C540.924 335.199 535.118 336.74 528.822 338.547C522.607 340.295 516.556 342.071 510.669 343.877C504.782 345.712 499.753 347.368 495.625 348.846C493.744 349.555 492.028 350.235 490.393 350.855C488.758 351.417 487.613 351.802 486.959 352.038C486.387 352.274 485.365 352.717 483.853 353.337C482.299 353.899 480.828 354.49 479.438 355.11C478.131 355.759 477.191 356.172 476.659 356.408C476.414 356.497 476.087 356.644 475.679 356.88C475.229 357.057 474.902 357.205 474.698 357.352C474.248 357.529 473.799 357.795 473.391 358.177C472.942 358.589 472.82 358.765 473.065 358.765ZM546 335.802C546.408 335.566 546.531 335.448 546.326 335.449C546.203 335.449 545.713 335.568 544.854 335.805C543.422 336.043 542.482 336.339 542.074 336.634C541.747 336.869 542.156 336.868 543.383 336.63C544.692 336.392 545.55 336.126 546 335.802ZM540.93 337.224C541.256 336.988 540.479 337.078 538.639 337.465C536.88 337.792 535.04 338.178 533.077 338.653C531.197 339.128 530.134 339.541 529.807 339.835C529.685 339.924 530.012 339.894 530.789 339.715C531.648 339.566 532.629 339.417 533.734 339.238C534.797 339.001 535.451 338.852 535.696 338.763C535.901 338.616 536.268 338.469 536.841 338.291C537.372 338.143 537.904 338.024 538.477 337.934C539.867 337.784 540.685 337.547 540.93 337.224ZM526.21 341.253C527.6 340.78 528.5 340.484 528.826 340.307C529.235 340.072 528.908 340.043 527.844 340.193C527.067 340.283 526.045 340.608 524.737 341.14C523.429 341.613 522.857 341.908 523.103 341.966C523.307 341.965 523.675 341.906 524.248 341.728C524.779 341.58 525.433 341.431 526.21 341.253ZM521.303 342.44C521.508 342.293 521.385 342.264 520.976 342.324C520.649 342.412 519.994 342.561 519.013 342.798C518.237 343.211 517.46 343.477 516.724 343.626C516.07 343.804 515.743 343.922 515.743 343.981C515.743 344.157 516.48 344.037 518.033 343.622C519.669 343.149 520.731 342.764 521.303 342.44ZM514.272 344.806C514.681 344.658 514.967 344.54 515.089 344.452C515.171 344.305 515.13 344.217 514.925 344.218C514.802 344.159 514.516 344.189 514.107 344.337C513.78 344.514 513.453 344.662 513.126 344.809C512.881 344.898 512.677 345.016 512.473 345.163C512.228 345.34 512.187 345.398 512.31 345.398C512.964 345.396 513.618 345.219 514.272 344.806ZM508.548 346.347C508.629 346.288 508.547 346.23 508.22 346.231C507.975 346.231 507.77 346.32 507.566 346.467C507.239 346.556 506.912 346.674 506.585 346.822C506.34 346.998 506.258 347.057 506.258 347.057C506.259 347.292 506.586 347.233 507.24 346.82C507.649 346.76 507.976 346.671 508.221 346.583C508.425 346.435 508.548 346.347 508.548 346.347ZM495.956 350.488C496.161 350.341 496.038 350.253 495.628 350.254C495.301 350.255 495.015 350.432 494.811 350.726C494.812 350.902 494.976 350.96 495.303 350.96C495.507 350.9 495.671 350.812 495.793 350.724C495.875 350.577 495.956 350.488 495.956 350.488ZM543.72 340.385C547.645 338.966 549.443 338.228 549.115 338.141C547.478 337.764 545.76 338.091 544.044 339.093C543.146 339.741 542.574 339.977 542.246 339.802C541.795 339.569 540.813 339.63 539.3 339.928C537.869 340.254 537.173 340.285 537.173 340.051C537.254 339.904 537.254 339.874 537.173 339.933C537.05 339.933 536.886 340.022 536.682 340.169C536.56 340.346 536.233 340.522 535.702 340.759C535.129 340.936 534.557 341.084 533.903 341.233C532.471 341.471 531.776 341.708 531.777 341.943C531.655 342.266 531.328 342.413 530.796 342.415C530.673 342.415 529.815 342.652 528.179 343.126C526.544 343.541 524.745 344.074 522.783 344.783C520.697 345.346 518.694 345.939 516.732 346.56C514.851 347.123 513.665 347.478 513.134 347.626C512.561 347.715 511.662 347.982 510.354 348.455C509.127 348.928 507.942 349.4 506.757 349.873C505.53 350.287 504.468 350.671 503.487 351.055C502.505 351.381 502.015 351.529 502.015 351.529C501.769 351.529 500.748 351.943 498.908 352.71C497.028 353.42 494.903 354.247 492.532 355.192C490.243 356.137 488.159 357.023 486.319 357.791C484.439 358.588 483.54 359.03 483.541 359.089C483.541 359.412 483.951 359.499 484.851 359.32C485.709 359.171 486.691 358.905 487.794 358.491C488.326 358.255 489.184 357.959 490.411 357.545C491.719 357.16 492.741 356.776 493.517 356.363C494.498 356.126 495.684 355.829 497.115 355.415C498.505 354.941 499.609 354.528 500.385 354.115C502.552 353.346 504.187 352.784 505.291 352.459C506.354 352.162 507.335 351.866 508.235 351.629C509.216 351.333 510.442 350.919 511.996 350.446C513.304 350.061 514.612 349.705 515.921 349.379C517.229 348.994 518.047 348.757 518.374 348.668C518.783 348.52 519.519 348.284 520.5 347.958C521.563 347.574 522.626 347.249 523.607 347.011C526.101 346.242 527.368 345.681 527.367 345.358C527.448 345.211 528.43 345.062 530.312 344.881C531.825 344.818 533.461 344.344 535.218 343.459C535.749 343.076 536.852 342.604 538.487 342.042C540.205 341.51 541.962 340.947 543.72 340.385ZM550.251 334.382C549.679 334.794 549.639 334.971 550.089 334.969C550.498 334.968 551.643 334.731 553.524 334.256C554.506 334.107 555.405 333.899 556.305 333.662C557.286 333.366 558.022 333.159 558.595 333.069C559.126 332.921 559.944 332.713 561.048 332.476C562.111 332.238 563.215 332 564.32 331.763C569.432 330.81 570.863 330.396 568.571 330.46C567.672 330.551 566.445 330.789 564.809 331.175C563.173 331.502 560.597 332.095 557.121 332.956C556.14 333.134 555.076 333.313 554.013 333.551C553.032 333.788 552.418 333.878 552.214 333.79C551.436 333.792 550.782 333.999 550.251 334.382ZM573.003 335.261C573.739 335.024 574.066 334.876 573.984 334.789C573.861 334.642 573.493 334.672 572.839 334.909C572.389 335.233 572.431 335.35 573.003 335.261ZM582.001 333.711C582.082 333.652 582.041 333.593 581.837 333.594C581.591 333.536 581.387 333.536 581.182 333.596C580.61 333.685 580.242 333.804 580.037 333.951C579.915 334.039 580.12 334.068 580.692 334.066C581.347 334.065 581.756 333.946 582.001 333.711ZM582.323 331.715C583.304 331.566 584.163 331.358 584.94 331.121C585.676 330.884 586.125 330.736 586.248 330.648C587.311 330.499 587.27 330.411 586.084 330.414C584.856 330.417 583.67 330.538 582.484 330.775C581.707 330.866 580.439 331.074 578.721 331.372C576.963 331.7 575.204 332.057 573.487 332.443C571.605 332.624 569.805 332.892 568.088 333.278C566.33 333.694 565.062 333.961 564.326 334.11C563.671 334.2 563.017 334.348 562.363 334.585C561.709 334.762 561.3 334.822 561.218 334.822C561.095 334.823 560.441 335.001 559.255 335.297C558.151 335.623 556.884 336.008 555.494 336.481C552.55 337.369 550.956 337.901 550.752 338.137C550.63 338.372 551.898 338.104 554.514 337.305C557.99 336.298 559.626 336.088 559.423 336.705C559.301 337.028 558.688 337.382 557.625 337.766C556.318 338.415 556.073 338.709 556.973 338.707C557.832 338.646 559.14 338.29 560.898 337.64C561.757 337.491 562.575 337.284 563.352 337.047C564.21 336.81 564.824 336.691 565.151 336.69C565.479 336.865 565.847 336.776 566.296 336.452C566.623 336.216 566.131 336.1 564.822 336.104C564.045 336.194 563.677 336.224 563.677 336.224C563.677 336.166 563.922 335.989 564.494 335.753C565.025 335.605 565.68 335.456 566.457 335.278C567.315 335.041 568.174 334.775 569.073 334.449C571.117 333.916 572.998 333.471 574.634 333.144C576.352 332.758 577.497 332.608 578.07 332.665C578.807 332.663 580.238 332.366 582.323 331.715ZM588.709 332.989C589.69 332.517 589.444 332.459 588.054 332.756C587.072 332.935 586.459 333.112 586.255 333.347C586.01 333.524 586.133 333.583 586.583 333.581C587.238 333.58 587.933 333.402 588.709 332.989ZM595.908 331.913C595.908 331.913 595.744 331.914 595.417 331.915C595.171 331.857 594.925 331.769 594.598 331.682C593.616 331.685 593.002 331.804 592.798 332.039C592.554 332.274 592.881 332.391 593.781 332.389C594.64 332.328 595.336 332.15 595.908 331.913ZM597.379 331.44C597.053 331.676 597.094 331.852 597.544 331.909C597.954 331.908 598.526 331.789 599.18 331.553C599.834 331.316 599.752 331.199 599.016 331.201C598.238 331.144 597.706 331.204 597.379 331.44ZM604.744 331.068C605.602 330.685 605.151 330.568 603.433 330.72C602.124 330.811 601.347 330.931 601.143 331.078C600.898 331.167 601.307 331.254 602.289 331.31C602.699 331.397 603.19 331.395 603.762 331.306C604.294 331.246 604.621 331.157 604.744 331.068ZM603.745 324.968L607.508 324.489L604.235 324.497C603.335 324.5 602.149 324.591 600.635 324.742C599.081 324.922 597.731 325.072 596.545 325.222C594.254 325.551 593.15 325.759 593.273 325.817C593.355 325.905 594.582 325.814 596.873 325.573C597.855 325.512 599 325.421 600.309 325.329C601.7 325.179 602.845 325.058 603.745 324.968ZM608.834 330.588C609.489 330.674 609.816 330.703 609.816 330.703C609.898 330.644 609.857 330.556 609.652 330.468C609.529 330.41 609.324 330.352 608.997 330.353C608.67 330.354 608.383 330.354 608.179 330.355C607.933 330.444 607.893 330.532 608.016 330.59C608.097 330.59 608.384 330.589 608.834 330.588ZM569.987 431.978C570.313 431.507 570.517 431.331 570.64 431.389C570.722 431.477 570.682 431.8 570.479 432.329C570.152 432.505 569.988 432.389 569.987 431.978ZM562.105 422.023C562.103 421.553 562.185 421.406 562.431 421.552C562.759 421.786 562.678 422.109 562.27 422.492C562.025 422.668 561.983 422.492 562.105 422.023Z" fill="white"/>
</g>
</g>
</svg>
